0
SECTION
2
HEADER
9
$INSUNITS
70
4
9
$ACADVER
1
AC1014
9
$HANDSEED
5
FFFF
0
ENDSEC
0
SECTION
2
TABLES
0
TABLE
2
VPORT
5
8
100
AcDbSymbolTable
0
ENDTAB
0
TABLE
2
LTYPE
5
5
100
AcDbSymbolTable
0
LTYPE
5
14
100
AcDbSymbolTableRecord
100
AcDbLinetypeTableRecord
2
BYBLOCK
70
0
0
LTYPE
5
15
100
AcDbSymbolTableRecord
100
AcDbLinetypeTableRecord
2
BYLAYER
70
0
0
ENDTAB
0
TABLE
2
LAYER
5
2
100
AcDbSymbolTable
70
2
0
LAYER
5
50
100
AcDbSymbolTableRecord
100
AcDbLayerTableRecord
2
0
70
0
6
CONTINUOUS
0
ENDTAB
0
TABLE
2
STYLE
5
3
100
AcDbSymbolTable
70
1
0
STYLE
5
11
100
AcDbSymbolTableRecord
100
AcDbTextStyleTableRecord
2
STANDARD
70
0
0
ENDTAB
0
TABLE
2
VIEW
5
6
100
AcDbSymbolTable
70
0
0
ENDTAB
0
TABLE
2
UCS
5
7
100
AcDbSymbolTable
70
0
0
ENDTAB
0
TABLE
2
APPID
5
9
100
AcDbSymbolTable
70
2
0
APPID
5
12
100
AcDbSymbolTableRecord
100
AcDbRegAppTableRecord
2
ACAD
70
0
0
ENDTAB
0
TABLE
2
DIMSTYLE
5
A
100
AcDbSymbolTable
70
1
0
ENDTAB
0
TABLE
2
BLOCK_RECORD
5
1
100
AcDbSymbolTable
70
1
0
BLOCK_RECORD
5
1F
100
AcDbSymbolTableRecord
100
AcDbBlockTableRecord
2
*MODEL_SPACE
0
BLOCK_RECORD
5
1B
100
AcDbSymbolTableRecord
100
AcDbBlockTableRecord
2
*PAPER_SPACE
0
ENDTAB
0
ENDSEC
0
SECTION
2
BLOCKS
0
BLOCK
5
20
100
AcDbEntity
100
AcDbBlockBegin
2
*MODEL_SPACE
0
ENDBLK
5
21
100
AcDbEntity
100
AcDbBlockEnd
0
BLOCK
5
1C
100
AcDbEntity
100
AcDbBlockBegin
2
*PAPER_SPACE
0
ENDBLK
5
1D
100
AcDbEntity
100
AcDbBlockEnd
0
ENDSEC
0
SECTION
2
ENTITIES
0
LWPOLYLINE
5
100
100
AcDbEntity
8
0
100
AcDbPolyline
90
50
70
1
43
0.0
10
-71.49999731779512
20
-84.34256120106005
42
-0.99999922865827295
10
-78.499997317791014
20
-84.342555801665867
42
0.41421356237310336
10
-80.999997317791014
20
-81.842555801665867
10
-104.99999852016114
20
-81.842555801665867
42
-0.41421546962798017
10
-109.9999899883114
20
-76.842531774390338
10
-109.99999131947894
20
-52.900006701800677
42
0.41421354267208715
10
-112.49999910792438
20
-50.399997945528966
42
-0.99998479768281245
10
-112.49999195933022
20
-43.399997946112222
42
0.41420694612071618
10
-109.99999198643638
20
-40.900054393267169
10
-109.99999993441
20
102.09987074403678
42
0.4142278931378956
10
-112.49999988240829
20
104.59999311363742
42
-0.9999992574797345
10
-112.50000059803216
20
111.59999311321876
42
0.41419850731689162
10
-110.00000060133337
20
114.099864609929
10
-110.00000854938818
20
257.09999325238709
42
0.41421223024368886
10
-112.49999731779099
20
259.59999311342835
42
-0.99999999999999989
10
-112.49999731779099
20
266.59999311342835
42
0.4142135623730992
10
-109.99999731779099
20
269.0999931134283
10
-109.99999731779099
20
293.09999311342835
42
-0.41421356237309398
10
-104.99999731779097
20
298.09999311342841
10
-80.999997278649673
20
298.09999311342835
42
0.41421355778769642
10
-78.499997317786764
20
300.59999311303744
42
-0.99999922865827295
10
-71.499997317791042
20
300.59998771364326
42
0.41421356237310336
10
-68.999997317791042
20
298.0999877136432
10
14.999999664723873
20
298.09998988389174
10
98.999996647238788
20
298.0999877136432
42
0.41421356237310336
10
101.49999664723539
20
300.59998771364326
42
-0.99999999999999989
10
108.49999664724207
20
300.59998771364326
42
0.41421292516366659
10
110.99999660809742
20
298.09999311342835
10
134.9999966472387
20
298.09999311342835
42
-0.41421356237309193
10
139.99999664723873
20
293.09999311342835
10
139.99999664723873
20
269.09999311342835
42
0.4142135623730992
10
142.49999664723873
20
266.59999311344302
42
-0.99999999999999989
10
142.49999664723873
20
259.59999311341369
42
0.41421223024368886
10
140.00000787872796
20
257.09999325238709
10
139.99999993095031
20
114.099864609929
42
0.4141981569956541
10
142.49999693726892
20
111.59999311338925
42
-0.99999999999999989
10
142.49999700442322
20
104.59999311346746
42
0.4142276345200932
10
139.99999926382139
20
102.09987074403678
10
139.9999913158843
20
-40.900054393267169
42
0.41420118207714368
10
142.49994208925816
20
-43.399997945515707
42
-0.99999999999999989
10
142.49994121986273
20
-50.399997946234151
42
0.4142068392610459
10
139.99999064892671
20
-52.900006701800677
10
139.99998931775914
20
-76.842531774390338
42
-0.41421546962798
10
134.99999784960889
20
-81.842555801665867
10
110.99999664723876
20
-81.842555801665867
42
0.41421356237310336
10
108.49999664724216
20
-84.342555801665867
42
-0.99999999999999989
10
101.49999664723531
20
-84.342555801665867
42
0.41421292516366659
10
98.999996686379916
20
-81.842561201450991
10
14.999999664723873
20
-81.842559031202441
10
-68.99999735693217
20
-81.842561201450991
42
0.41421355778770058
0
CIRCLE
5
101
100
AcDbEntity
8
0
100
AcDbCircle
10
142.49999664723873
20
263.09999311342835
30
0
40
1.7000000000000171
210
0
220
-0
230
1
0
CIRCLE
5
102
100
AcDbEntity
8
0
100
AcDbCircle
10
142.49994165456044
20
-46.899997945874929
30
0
40
1.7000000000000171
210
0
220
-0
230
1
0
CIRCLE
5
103
100
AcDbEntity
8
0
100
AcDbCircle
10
142.49999697084607
20
108.09999311342835
30
0
40
1.7000000000000171
210
0
220
-0
230
1
0
CIRCLE
5
104
100
AcDbEntity
8
0
100
AcDbCircle
10
104.99999664723873
20
300.59998771364326
30
0
40
1.7000000000000171
210
0
220
0
230
1
0
CIRCLE
5
105
100
AcDbEntity
8
0
100
AcDbCircle
10
104.99999664723873
20
-84.342555801665867
30
0
40
1.7000000000000171
210
0
220
0
230
1
0
CIRCLE
5
106
100
AcDbEntity
8
0
100
AcDbCircle
10
-112.4999423251127
20
-46.899997945874929
30
0
40
1.7000000000000171
210
0
220
-0
230
1
0
CIRCLE
5
107
100
AcDbEntity
8
0
100
AcDbCircle
10
-112.49999764139832
20
108.09999311342835
30
0
40
1.7000000000000171
210
0
220
-0
230
1
0
CIRCLE
5
108
100
AcDbEntity
8
0
100
AcDbCircle
10
-112.49999731779099
20
263.09999311342835
30
0
40
1.7000000000000171
210
0
220
-0
230
1
0
CIRCLE
5
109
100
AcDbEntity
8
0
100
AcDbCircle
10
-74.999997317790985
20
300.59998771364326
30
0
40
1.7000000000000171
210
0
220
-0
230
1
0
CIRCLE
5
110
100
AcDbEntity
8
0
100
AcDbCircle
10
-74.999997317790985
20
-84.342555801665867
30
0
40
1.7000000000000171
210
0
220
-0
230
1
0
ARC
5
111
100
AcDbEntity
8
0
100
AcDbCircle
10
-74.999997317790985
20
-84.342555801665853
30
0
40
3.500000000000032
210
0
220
0
230
1
100
AcDbArc
50
180
51
359.99991161071489
0
ARC
5
112
100
AcDbEntity
8
0
100
AcDbCircle
10
-68.999997317793401
20
-84.342561201450948
30
0
40
2.4999999999999649
210
0
220
0
230
1
100
AcDbArc
50
90.000000896994507
51
180
0
LINE
5
113
100
AcDbEntity
8
0
100
AcDbLine
10
-68.99999735693217
20
-81.842561201450991
30
0
11
14.999999664723873
21
-81.842559031202441
31
0
0
LINE
5
114
100
AcDbEntity
8
0
100
AcDbLine
10
14.999999664723873
20
-81.842559031202441
30
0
11
98.999996686379916
21
-81.842561201450991
31
0
0
ARC
5
115
100
AcDbEntity
8
0
100
AcDbCircle
10
98.999996647241133
20
-84.342561201450991
30
0
40
2.5000000000000049
210
0
220
-0
230
1
100
AcDbArc
50
0.00012375301012139005
51
89.999999103005166
0
ARC
5
116
100
AcDbEntity
8
0
100
AcDbCircle
10
104.99999664723873
20
-84.342555801665895
30
0
40
3.5000000000034248
210
0
220
0
230
1
100
AcDbArc
50
180
51
360
0
ARC
5
117
100
AcDbEntity
8
0
100
AcDbCircle
10
110.9999966472387
20
-84.34255580166581
30
0
40
2.4999999999999467
210
0
220
-0
230
1
100
AcDbArc
50
89.999999999998693
51
180
0
LINE
5
118
100
AcDbEntity
8
0
100
AcDbLine
10
110.99999664723876
20
-81.842555801665867
30
0
11
134.99999784960889
21
-81.842555801665867
31
0
0
ARC
5
119
100
AcDbEntity
8
0
100
AcDbCircle
10
134.99999784949924
20
-76.842564333299947
30
0
40
4.9999914683659163
210
0
220
0
230
1
100
AcDbArc
50
-89.99999999874349
51
0.0003730981065536081
0
LINE
5
120
100
AcDbEntity
8
0
100
AcDbLine
10
139.99998931820093
20
-76.842531774390338
30
0
11
139.99999064892671
21
-52.900006701800677
31
0
0
ARC
5
121
100
AcDbEntity
8
0
100
AcDbCircle
10
142.49999900535141
20
-52.900006301991084
30
0
40
2.500008356424761
210
0
220
0
230
1
100
AcDbArc
50
90.001324341420769
51
180.00000915570234
0
ARC
5
122
100
AcDbEntity
8
0
100
AcDbCircle
10
142.49994165456044
20
-46.899997945874922
30
0
40
3.5000000003592562
210
0
220
0
230
1
100
AcDbArc
50
-90.000007116098345
51
89.999992883901214
0
ARC
5
123
100
AcDbEntity
8
0
100
AcDbCircle
10
142.49999131512425
20
-40.899997946234862
30
0
40
2.4999999998772036
210
0
220
0
230
1
100
AcDbArc
50
180.00129367049854
51
269.9988718262527
0
LINE
5
124
100
AcDbEntity
8
0
100
AcDbLine
10
139.9999913158843
20
-40.900054393267169
30
0
11
139.99999926382139
21
102.09987074403678
31
0
0
ARC
5
125
100
AcDbEntity
8
0
100
AcDbCircle
10
142.49999926099568
20
102.09999311329936
30
0
40
2.5000000001691145
210
0
220
0
230
1
100
AcDbArc
50
90.000051716831194
51
180.00280449685138
0
ARC
5
126
100
AcDbEntity
8
0
100
AcDbCircle
10
142.49999697084607
20
108.09999311342835
30
0
40
3.4999999999608988
210
-0
220
0
230
1
100
AcDbArc
50
-89.999999450334556
51
90.000000549665458
0
ARC
5
127
100
AcDbEntity
8
0
100
AcDbCircle
10
142.49999992764762
20
114.09999311338787
30
0
40
2.4999999999999361
210
0
220
0
230
1
100
AcDbArc
50
180.00294508226185
51
269.99993146556847
0
LINE
5
128
100
AcDbEntity
8
0
100
AcDbLine
10
139.99999993095031
20
114.099864609929
30
0
11
140.00000787872796
21
257.09999325238709
31
0
0
ARC
5
129
100
AcDbEntity
8
0
100
AcDbCircle
10
142.50000787872983
20
257.09999311343705
30
0
40
2.5000000000018523
210
0
220
0
230
1
100
AcDbArc
50
90.000257406815081
51
179.99999680547154
0
ARC
5
130
100
AcDbEntity
8
0
100
AcDbCircle
10
142.49999664723873
20
263.09999311342835
30
0
40
3.5000000000146869
210
0
220
0
230
1
100
AcDbArc
50
-90
51
90
0
ARC
5
131
100
AcDbEntity
8
0
100
AcDbCircle
10
142.4999966472387
20
269.09999311342835
30
0
40
2.4999999999999822
210
0
220
0
230
1
100
AcDbArc
50
180
51
270.00000000000068
0
LINE
5
132
100
AcDbEntity
8
0
100
AcDbLine
10
139.99999664723873
20
269.09999311342835
30
0
11
139.99999664723873
21
293.09999311342835
31
0
0
ARC
5
133
100
AcDbEntity
8
0
100
AcDbCircle
10
134.99999664723867
20
293.0999931134283
30
0
40
5.0000000000000533
210
0
220
-0
230
1
100
AcDbArc
50
0
51
89.999999999999673
0
LINE
5
134
100
AcDbEntity
8
0
100
AcDbLine
10
134.9999966472387
20
298.09999311342835
30
0
11
110.99999660809742
21
298.09999311342835
31
0
0
ARC
5
135
100
AcDbEntity
8
0
100
AcDbCircle
10
110.99999664723624
20
300.59999311342835
30
0
40
2.5000000000000049
210
0
220
0
230
1
100
AcDbArc
50
180.00012375301009
51
269.9999991030042
0
ARC
5
136
100
AcDbEntity
8
0
100
AcDbCircle
10
104.99999664723873
20
300.59998771364326
30
0
40
3.500000000003336
210
0
220
0
230
1
100
AcDbArc
50
0
51
180
0
ARC
5
137
100
AcDbEntity
8
0
100
AcDbCircle
10
98.999996647238788
20
300.5999877136432
30
0
40
2.5
210
0
220
0
230
1
100
AcDbArc
50
-90
51
0
0
LINE
5
138
100
AcDbEntity
8
0
100
AcDbLine
10
98.999996647238788
20
298.0999877136432
30
0
11
14.999999664723873
21
298.09998988389174
31
0
0
LINE
5
139
100
AcDbEntity
8
0
100
AcDbLine
10
14.999999664723873
20
298.09998988389174
30
0
11
-68.999997317791042
21
298.0999877136432
31
0
0
ARC
5
140
100
AcDbEntity
8
0
100
AcDbCircle
10
-68.999997317791028
20
300.59998771364326
30
0
40
2.5000000000000178
210
0
220
0
230
1
100
AcDbArc
50
180
51
269.99999999999972
0
ARC
5
141
100
AcDbEntity
8
0
100
AcDbCircle
10
-74.999997317790999
20
300.59998771364326
30
0
40
3.4999999999999609
210
0
220
0
230
1
100
AcDbArc
50
0
51
179.99991160246842
0
ARC
5
142
100
AcDbEntity
8
0
100
AcDbCircle
10
-80.999997317788498
20
300.59999311342835
30
0
40
2.5
210
0
220
0
230
1
100
AcDbArc
50
-89.9999991030042
51
0
0
LINE
5
143
100
AcDbEntity
8
0
100
AcDbLine
10
-80.999997278649673
20
298.09999311342835
30
0
11
-104.99999731779097
21
298.09999311342841
31
0
0
ARC
5
144
100
AcDbEntity
8
0
100
AcDbCircle
10
-104.99999731779097
20
293.09999311342835
30
0
40
5.0000000000000355
210
0
220
-0
230
1
100
AcDbArc
50
90
51
180
0
LINE
5
145
100
AcDbEntity
8
0
100
AcDbLine
10
-109.999997317791
20
293.09999311342835
30
0
11
-109.99999731779099
21
269.0999931134283
31
0
0
ARC
5
146
100
AcDbEntity
8
0
100
AcDbCircle
10
-112.49999731779096
20
269.0999931134283
30
0
40
2.4999999999999645
210
0
220
0
230
1
100
AcDbArc
50
-90.000000000000654
51
0
0
ARC
5
147
100
AcDbEntity
8
0
100
AcDbCircle
10
-112.49999731779099
20
263.09999311342835
30
0
40
3.4999999999999787
210
0
220
-0
230
1
100
AcDbArc
50
90
51
270
0
ARC
5
148
100
AcDbEntity
8
0
100
AcDbCircle
10
-112.50000854928196
20
257.09999311343711
30
0
40
2.4999999998937779
210
0
220
-0
230
1
100
AcDbArc
50
3.1945284701301985e-06
51
89.999742593187847
0
LINE
5
149
100
AcDbEntity
8
0
100
AcDbLine
10
-110.00000854938818
20
257.09999325238709
30
0
11
-110.00000060133337
21
114.099864609929
31
0
0
ARC
5
150
100
AcDbEntity
8
0
100
AcDbCircle
10
-112.50000059819988
20
114.09999311338791
30
0
40
2.5000000001691447
210
0
220
0
230
1
100
AcDbArc
50
270.00000000384381
51
359.99705491773818
0
ARC
5
151
100
AcDbEntity
8
0
100
AcDbCircle
10
-112.49999764139832
20
108.09999311342835
30
0
40
3.4999999997916529
210
0
220
0
230
1
100
AcDbArc
50
90.000048400754395
51
269.9999633227352
0
ARC
5
152
100
AcDbEntity
8
0
100
AcDbCircle
10
-112.49999993154789
20
102.09999311329935
30
0
40
2.5000000001327454
210
0
220
0
230
1
100
AcDbArc
50
-0.0028044967214667397
51
89.999998861808848
0
LINE
5
153
100
AcDbEntity
8
0
100
AcDbLine
10
-109.99999993441
20
102.09987074403678
30
0
11
-109.99999198643638
21
-40.900054393267169
31
0
0
ARC
5
154
100
AcDbEntity
8
0
100
AcDbCircle
10
-112.49999198567652
20
-40.899997946234841
30
0
40
2.4999999998773781
210
0
220
0
230
1
100
AcDbArc
50
270.00000060381268
51
359.99870632950143
0
ARC
5
155
100
AcDbEntity
8
0
100
AcDbCircle
10
-112.4999423251127
20
-46.899997945874922
30
0
40
3.5000000001146385
210
0
220
0
230
1
100
AcDbArc
50
90.000812523195208
51
269.9990704527259
0
ARC
5
156
100
AcDbEntity
8
0
100
AcDbCircle
10
-112.49999967590368
20
-52.90000630199107
30
0
40
2.5000083564247753
210
0
220
0
230
1
100
AcDbArc
50
-9.1557023597953301e-06
51
89.999986982917164
0
LINE
5
157
100
AcDbEntity
8
0
100
AcDbLine
10
-109.99999131947894
20
-52.900006701800677
30
0
11
-109.9999899883114
21
-76.842531774390338
31
0
0
ARC
5
158
100
AcDbEntity
8
0
100
AcDbCircle
10
-104.99999852005146
20
-76.842564333299933
30
0
40
4.9999914683659474
210
0
220
0
230
1
100
AcDbArc
50
179.99962690189344
51
269.99999999874302
0
LINE
5
159
100
AcDbEntity
8
0
100
AcDbLine
10
-104.99999852016116
20
-81.842555801665867
30
0
11
-80.999997317791014
21
-81.842555801665867
31
0
0
ARC
5
160
100
AcDbEntity
8
0
100
AcDbCircle
10
-80.999997317790957
20
-84.34255580166581
30
0
40
2.4999999999999467
210
0
220
0
230
1
100
AcDbArc
50
0
51
90.000000000001307
0
CIRCLE
5
161
100
AcDbEntity
8
0
100
AcDbCircle
10
142.49999664723873
20
263.09999311342835
30
0
40
1.7000000000000171
210
0
220
0
230
1
0
CIRCLE
5
162
100
AcDbEntity
8
0
100
AcDbCircle
10
142.49994165456044
20
-46.899997945874929
30
0
40
1.7000000000000171
210
0
220
0
230
1
0
CIRCLE
5
163
100
AcDbEntity
8
0
100
AcDbCircle
10
142.49999697084607
20
108.09999311342835
30
0
40
1.7000000000000171
210
0
220
0
230
1
0
CIRCLE
5
164
100
AcDbEntity
8
0
100
AcDbCircle
10
104.99999664723873
20
300.59998771364326
30
0
40
1.7000000000000171
210
0
220
-0
230
1
0
CIRCLE
5
165
100
AcDbEntity
8
0
100
AcDbCircle
10
104.99999664723873
20
-84.342555801665867
30
0
40
1.7000000000000171
210
0
220
-0
230
1
0
CIRCLE
5
166
100
AcDbEntity
8
0
100
AcDbCircle
10
-112.4999423251127
20
-46.899997945874929
30
0
40
1.7000000000000171
210
0
220
0
230
1
0
CIRCLE
5
167
100
AcDbEntity
8
0
100
AcDbCircle
10
-112.49999764139832
20
108.09999311342835
30
0
40
1.7000000000000171
210
0
220
0
230
1
0
CIRCLE
5
168
100
AcDbEntity
8
0
100
AcDbCircle
10
-112.49999731779099
20
263.09999311342835
30
0
40
1.7000000000000171
210
0
220
0
230
1
0
CIRCLE
5
169
100
AcDbEntity
8
0
100
AcDbCircle
10
-74.999997317790985
20
300.59998771364326
30
0
40
1.7000000000000171
210
0
220
0
230
1
0
CIRCLE
5
170
100
AcDbEntity
8
0
100
AcDbCircle
10
-74.999997317790985
20
-84.342555801665867
30
0
40
1.7000000000000171
210
0
220
0
230
1
0
ENDSEC
0
SECTION
2
OBJECTS
0
DICTIONARY
5
C
100
AcDbDictionary
3
ACAD_GROUP
350
D
3
ACAD_MLINESTYLE
350
17
0
DICTIONARY
5
D
100
AcDbDictionary
0
DICTIONARY
5
1A
330
C
100
AcDbDictionary
0
DICTIONARY
5
17
100
AcDbDictionary
0
ENDSEC
0
EOF
