0
SECTION
2
HEADER
9
$INSUNITS
70
4
9
$ACADVER
1
AC1014
9
$HANDSEED
5
FFFF
0
ENDSEC
0
SECTION
2
TABLES
0
TABLE
2
VPORT
5
8
100
AcDbSymbolTable
0
ENDTAB
0
TABLE
2
LTYPE
5
5
100
AcDbSymbolTable
0
LTYPE
5
14
100
AcDbSymbolTableRecord
100
AcDbLinetypeTableRecord
2
BYBLOCK
70
0
0
LTYPE
5
15
100
AcDbSymbolTableRecord
100
AcDbLinetypeTableRecord
2
BYLAYER
70
0
0
ENDTAB
0
TABLE
2
LAYER
5
2
100
AcDbSymbolTable
70
2
0
LAYER
5
50
100
AcDbSymbolTableRecord
100
AcDbLayerTableRecord
2
0
70
0
6
CONTINUOUS
0
ENDTAB
0
TABLE
2
STYLE
5
3
100
AcDbSymbolTable
70
1
0
STYLE
5
11
100
AcDbSymbolTableRecord
100
AcDbTextStyleTableRecord
2
STANDARD
70
0
0
ENDTAB
0
TABLE
2
VIEW
5
6
100
AcDbSymbolTable
70
0
0
ENDTAB
0
TABLE
2
UCS
5
7
100
AcDbSymbolTable
70
0
0
ENDTAB
0
TABLE
2
APPID
5
9
100
AcDbSymbolTable
70
2
0
APPID
5
12
100
AcDbSymbolTableRecord
100
AcDbRegAppTableRecord
2
ACAD
70
0
0
ENDTAB
0
TABLE
2
DIMSTYLE
5
A
100
AcDbSymbolTable
70
1
0
ENDTAB
0
TABLE
2
BLOCK_RECORD
5
1
100
AcDbSymbolTable
70
1
0
BLOCK_RECORD
5
1F
100
AcDbSymbolTableRecord
100
AcDbBlockTableRecord
2
*MODEL_SPACE
0
BLOCK_RECORD
5
1B
100
AcDbSymbolTableRecord
100
AcDbBlockTableRecord
2
*PAPER_SPACE
0
ENDTAB
0
ENDSEC
0
SECTION
2
BLOCKS
0
BLOCK
5
20
100
AcDbEntity
100
AcDbBlockBegin
2
*MODEL_SPACE
0
ENDBLK
5
21
100
AcDbEntity
100
AcDbBlockEnd
0
BLOCK
5
1C
100
AcDbEntity
100
AcDbBlockBegin
2
*PAPER_SPACE
0
ENDBLK
5
1D
100
AcDbEntity
100
AcDbBlockEnd
0
ENDSEC
0
SECTION
2
ENTITIES
0
LWPOLYLINE
5
100
100
AcDbEntity
8
0
100
AcDbPolyline
90
50
70
1
43
0.0
10
-138.99998909587956
20
-81.842555801665867
42
-0.41421354609408917
10
-139.99998909587956
20
-80.842555857245884
10
-139.99999064892671
20
-52.900006701800677
42
0.41420683926104496
10
-142.49994121986271
20
-50.39999794612244
42
-0.99999999999999989
10
-142.49994208925818
20
-43.399997945627419
42
0.41420118207714307
10
-139.99999131588413
20
-40.900054393267169
10
-139.99999926382139
20
102.09987074403678
42
0.4142276345200932
10
-142.49999700442322
20
104.59999311346698
42
-0.99999999999999989
10
-142.49999693726892
20
111.59999311338973
42
0.41419815699565304
10
-139.99999993078109
20
114.09986460992899
10
-140.00000787872796
20
257.09999325238709
42
0.41421223024368886
10
-142.49999664723873
20
259.59999311342835
42
-0.99999999999999989
10
-142.49999664723873
20
266.59999311342835
42
0.41421356237309503
10
-139.99999664723873
20
269.0999931134283
10
-139.99999664723876
20
297.09999311342835
42
-0.41421356237309503
10
-138.99999664723873
20
298.09999311342835
10
-110.99999660809742
20
298.09999311342835
42
0.41421292516366659
10
-108.49999664723867
20
300.59998771364326
42
-0.99999999999999989
10
-101.49999664723879
20
300.59998771364326
42
0.41421356237310336
10
-98.999996647238788
20
298.0999877136432
10
-14.999999664723873
20
298.09998988389174
10
68.999997317791042
20
298.0999877136432
42
0.41421356237310336
10
71.499997317789308
20
300.59998771325235
42
-0.99999922865827295
10
78.499997317788498
20
300.59999311342835
42
0.41421355778769642
10
80.999997278649673
20
298.09999311342835
10
108.99999731779099
20
298.09999311342835
42
-0.41421356237309503
10
109.99999731779099
20
297.09999311342835
10
109.99999731779099
20
269.0999931134283
42
0.4142135623730992
10
112.49999731779099
20
266.59999311355102
42
-0.99999999999999989
10
112.49999731779099
20
259.59999311330569
42
0.41421223024368881
10
110.00000854938818
20
257.09999325238709
10
110.00000060133338
20
114.099864609929
42
0.41419850731689162
10
112.50000059830776
20
111.59999311342406
42
-0.9999992574423554
10
112.49999988239435
20
104.59999311343211
42
0.41422789313789143
10
109.99999993441001
20
102.09987074403682
10
109.99999198643637
20
-40.900054393267176
42
0.41420694612071307
10
112.49999195934529
20
-43.399997946074805
42
-0.99998479767916093
10
112.49999910793485
20
-50.399997945566369
42
0.41421354267208715
10
109.99999131947894
20
-52.900006701800677
10
109.99998976643181
20
-80.842555857245884
42
-0.41421354609408917
10
108.99998976643181
20
-81.842555801665867
10
80.999997317791014
20
-81.842555801665867
42
0.41421356237310336
10
78.499997317792747
20
-84.342555801274926
42
-0.99999922865827295
10
71.499997317793387
20
-84.342561201450991
42
0.41421355778770158
10
68.99999735693217
20
-81.842561201450991
10
-14.999999664723873
20
-81.842559031202441
10
-98.999996686379916
20
-81.842561201450991
42
0.41421292516366659
10
-101.4999966472387
20
-84.342555801665867
42
-0.99999999999999989
10
-108.49999664723876
20
-84.342555801665867
42
0.41421356237310125
10
-110.99999664723875
20
-81.842555801665867
0
CIRCLE
5
101
100
AcDbEntity
8
0
100
AcDbCircle
10
-142.49999664723873
20
263.09999311342835
30
0
40
1.7000000000000171
210
0
220
0
230
1
0
CIRCLE
5
102
100
AcDbEntity
8
0
100
AcDbCircle
10
-142.49994165456044
20
-46.899997945874929
30
0
40
1.7000000000000171
210
0
220
0
230
1
0
CIRCLE
5
103
100
AcDbEntity
8
0
100
AcDbCircle
10
-142.49999697084607
20
108.09999311342835
30
0
40
1.7000000000000171
210
0
220
0
230
1
0
CIRCLE
5
104
100
AcDbEntity
8
0
100
AcDbCircle
10
-104.99999664723873
20
300.59998771364326
30
0
40
1.7000000000000171
210
0
220
0
230
1
0
CIRCLE
5
105
100
AcDbEntity
8
0
100
AcDbCircle
10
-104.99999664723873
20
-84.342555801665867
30
0
40
1.7000000000000171
210
0
220
0
230
1
0
CIRCLE
5
106
100
AcDbEntity
8
0
100
AcDbCircle
10
112.4999423251127
20
-46.899997945874929
30
0
40
1.7000000000000171
210
0
220
0
230
1
0
CIRCLE
5
107
100
AcDbEntity
8
0
100
AcDbCircle
10
112.49999764139832
20
108.09999311342835
30
0
40
1.7000000000000171
210
0
220
0
230
1
0
CIRCLE
5
108
100
AcDbEntity
8
0
100
AcDbCircle
10
112.49999731779099
20
263.09999311342835
30
0
40
1.7000000000000171
210
0
220
0
230
1
0
CIRCLE
5
109
100
AcDbEntity
8
0
100
AcDbCircle
10
74.999997317790985
20
300.59998771364326
30
0
40
1.7000000000000171
210
0
220
0
230
1
0
CIRCLE
5
110
100
AcDbEntity
8
0
100
AcDbCircle
10
74.999997317790985
20
-84.342555801665867
30
0
40
1.7000000000000171
210
0
220
0
230
1
0
CIRCLE
5
111
100
AcDbEntity
8
0
100
AcDbCircle
10
-142.49999664723873
20
263.09999311342835
30
0
40
1.7000000000000171
210
0
220
-0
230
1
0
CIRCLE
5
112
100
AcDbEntity
8
0
100
AcDbCircle
10
-142.49994165456044
20
-46.899997945874929
30
0
40
1.7000000000000171
210
0
220
-0
230
1
0
CIRCLE
5
113
100
AcDbEntity
8
0
100
AcDbCircle
10
-142.49999697084607
20
108.09999311342835
30
0
40
1.7000000000000171
210
0
220
-0
230
1
0
CIRCLE
5
114
100
AcDbEntity
8
0
100
AcDbCircle
10
-104.99999664723873
20
300.59998771364326
30
0
40
1.7000000000000171
210
0
220
-0
230
1
0
CIRCLE
5
115
100
AcDbEntity
8
0
100
AcDbCircle
10
-104.99999664723873
20
-84.342555801665867
30
0
40
1.7000000000000171
210
0
220
-0
230
1
0
CIRCLE
5
116
100
AcDbEntity
8
0
100
AcDbCircle
10
112.4999423251127
20
-46.899997945874929
30
0
40
1.7000000000000171
210
0
220
-0
230
1
0
CIRCLE
5
117
100
AcDbEntity
8
0
100
AcDbCircle
10
112.49999764139832
20
108.09999311342835
30
0
40
1.7000000000000171
210
0
220
-0
230
1
0
CIRCLE
5
118
100
AcDbEntity
8
0
100
AcDbCircle
10
112.49999731779099
20
263.09999311342835
30
0
40
1.7000000000000171
210
0
220
-0
230
1
0
CIRCLE
5
119
100
AcDbEntity
8
0
100
AcDbCircle
10
74.999997317790985
20
300.59998771364326
30
0
40
1.7000000000000171
210
0
220
-0
230
1
0
CIRCLE
5
120
100
AcDbEntity
8
0
100
AcDbCircle
10
74.999997317790985
20
-84.342555801665867
30
0
40
1.7000000000000171
210
0
220
-0
230
1
0
LWPOLYLINE
5
121
100
AcDbEntity
8
0
100
AcDbPolyline
90
50
70
1
43
0.0
10
-138.99998909587956
20
-81.842555801665867
42
-0.41421354609409961
10
-139.99998909587956
20
-80.842555857245884
10
-139.99999064892671
20
-52.90000670180067
42
0.4142068392610439
10
-142.49994121986271
20
-50.39999794612244
42
-0.99999999999999989
10
-142.49994208925818
20
-43.399997945627419
42
0.41420118207714407
10
-139.99999131588413
20
-40.900054393267169
10
-139.99999926382139
20
102.09987074403678
42
0.41422763452008693
10
-142.49999700442322
20
104.59999311346698
42
-0.99999999999999989
10
-142.49999693726892
20
111.59999311338973
42
0.41419815699566137
10
-139.99999993078109
20
114.09986460992899
10
-140.00000787872796
20
257.09999325238709
42
0.41421223024368886
10
-142.49999664723873
20
259.59999311342835
42
-0.99999999999999989
10
-142.49999664723873
20
266.59999311342835
42
0.41421356237308876
10
-139.99999664723873
20
269.0999931134283
10
-139.99999664723873
20
297.09999311342835
42
-0.41421356237308982
10
-138.99999664723873
20
298.09999311342835
10
-110.99999660809742
20
298.09999311342835
42
0.41421292516366659
10
-108.49999664723867
20
300.59998771364326
42
-0.99999999999999989
10
-101.49999664723879
20
300.59998771364326
42
0.41421356237310336
10
-98.999996647238788
20
298.0999877136432
10
-14.999999664723873
20
298.09998988389174
10
68.999997317791042
20
298.0999877136432
42
0.41421356237309709
10
71.499997317789308
20
300.59998771325235
42
-0.99999922865827295
10
78.499997317788498
20
300.59999311342835
42
0.41421355778769642
10
80.999997278649673
20
298.09999311342835
10
108.99999731779099
20
298.09999311342835
42
-0.41421356237308982
10
109.99999731779099
20
297.09999311342835
10
109.99999731779099
20
269.0999931134283
42
0.4142135623730992
10
112.49999731779099
20
266.59999311355102
42
-0.99999999999999989
10
112.49999731779099
20
259.59999311330569
42
0.41421223024367004
10
110.00000854938818
20
257.09999325238709
10
110.00000060133338
20
114.099864609929
42
0.41419850731689789
10
112.50000059830776
20
111.59999311342406
42
-0.9999992574423554
10
112.49999988239435
20
104.59999311343211
42
0.4142278931378956
10
109.99999993441001
20
102.09987074403682
10
109.99999198643637
20
-40.900054393267176
42
0.41420694612070891
10
112.49999195934529
20
-43.399997946074805
42
-0.99998479767916093
10
112.49999910793485
20
-50.399997945566369
42
0.41421354267208399
10
109.99999131947894
20
-52.900006701800677
10
109.99998976643181
20
-80.842555857245884
42
-0.41421354609409961
10
108.99998976643181
20
-81.842555801665867
10
80.999997317791014
20
-81.842555801665867
42
0.41421356237310752
10
78.499997317792747
20
-84.342555801274926
42
-0.99999922865827295
10
71.499997317793387
20
-84.342561201450991
42
0.41421355778770785
10
68.99999735693217
20
-81.842561201450991
10
-14.999999664723873
20
-81.842559031202441
10
-98.999996686379916
20
-81.842561201450991
42
0.41421292516366454
10
-101.4999966472387
20
-84.342555801665867
42
-0.99999999999999989
10
-108.49999664723876
20
-84.342555801665867
42
0.41421356237310542
10
-110.99999664723875
20
-81.842555801665867
0
ENDSEC
0
SECTION
2
OBJECTS
0
DICTIONARY
5
C
100
AcDbDictionary
3
ACAD_GROUP
350
D
3
ACAD_MLINESTYLE
350
17
0
DICTIONARY
5
D
100
AcDbDictionary
0
DICTIONARY
5
1A
330
C
100
AcDbDictionary
0
DICTIONARY
5
17
100
AcDbDictionary
0
ENDSEC
0
EOF
