0
SECTION
2
HEADER
9
$INSUNITS
70
4
9
$ACADVER
1
AC1014
9
$HANDSEED
5
FFFF
0
ENDSEC
0
SECTION
2
TABLES
0
TABLE
2
VPORT
5
8
100
AcDbSymbolTable
0
ENDTAB
0
TABLE
2
LTYPE
5
5
100
AcDbSymbolTable
0
LTYPE
5
14
100
AcDbSymbolTableRecord
100
AcDbLinetypeTableRecord
2
BYBLOCK
70
0
0
LTYPE
5
15
100
AcDbSymbolTableRecord
100
AcDbLinetypeTableRecord
2
BYLAYER
70
0
0
ENDTAB
0
TABLE
2
LAYER
5
2
100
AcDbSymbolTable
70
2
0
LAYER
5
50
100
AcDbSymbolTableRecord
100
AcDbLayerTableRecord
2
0
70
0
6
CONTINUOUS
0
ENDTAB
0
TABLE
2
STYLE
5
3
100
AcDbSymbolTable
70
1
0
STYLE
5
11
100
AcDbSymbolTableRecord
100
AcDbTextStyleTableRecord
2
STANDARD
70
0
0
ENDTAB
0
TABLE
2
VIEW
5
6
100
AcDbSymbolTable
70
0
0
ENDTAB
0
TABLE
2
UCS
5
7
100
AcDbSymbolTable
70
0
0
ENDTAB
0
TABLE
2
APPID
5
9
100
AcDbSymbolTable
70
2
0
APPID
5
12
100
AcDbSymbolTableRecord
100
AcDbRegAppTableRecord
2
ACAD
70
0
0
ENDTAB
0
TABLE
2
DIMSTYLE
5
A
100
AcDbSymbolTable
70
1
0
ENDTAB
0
TABLE
2
BLOCK_RECORD
5
1
100
AcDbSymbolTable
70
1
0
BLOCK_RECORD
5
1F
100
AcDbSymbolTableRecord
100
AcDbBlockTableRecord
2
*MODEL_SPACE
0
BLOCK_RECORD
5
1B
100
AcDbSymbolTableRecord
100
AcDbBlockTableRecord
2
*PAPER_SPACE
0
ENDTAB
0
ENDSEC
0
SECTION
2
BLOCKS
0
BLOCK
5
20
100
AcDbEntity
100
AcDbBlockBegin
2
*MODEL_SPACE
0
ENDBLK
5
21
100
AcDbEntity
100
AcDbBlockEnd
0
BLOCK
5
1C
100
AcDbEntity
100
AcDbBlockBegin
2
*PAPER_SPACE
0
ENDBLK
5
1D
100
AcDbEntity
100
AcDbBlockEnd
0
ENDSEC
0
SECTION
2
ENTITIES
0
LWPOLYLINE
5
100
100
AcDbEntity
8
0
100
AcDbPolyline
90
36
70
1
43
0.0
10
-114.00000000000216
20
53.499999040537446
10
-114.00000000000216
20
7.9999990405374355
10
-108.00000000000216
20
7.9999990405374364
42
-0.41421356237309509
10
-106.00000000000216
20
5.9999990405374435
10
-106.00000000000216
20
-9.5946257050449901e-07
10
109.99999999999817
20
-9.5946257039626493e-07
10
109.99999999999815
20
42.999999040537432
42
-0.41421356237309509
10
111.99999999999815
20
44.999999040537432
10
154.99999999999815
20
44.999999040537432
10
154.99999999999713
20
193.99999904053743
10
111.99999999999712
20
193.99999904053743
42
-0.41421356237309509
10
109.99999999999713
20
195.99999904053743
10
109.99999999999709
20
238.99999904053743
10
-106.00000000000328
20
238.99999904053769
10
-106.00000000000324
20
232.99999904053766
42
-0.41421356237309509
10
-108.00000000000324
20
230.99999904053766
10
-114.00000000000306
20
230.99999904053766
10
-114.00000000000099
20
152.4999990405374
10
-108.00000000000337
20
152.49999904053738
42
-0.41421356237309509
10
-106.00000000000324
20
150.49999904053726
10
-106.00000000000324
20
146.49999904053749
42
0.41421356237309509
10
-104.00000000000315
20
144.49999904053738
10
-65.000000000001009
20
144.4999990405374
42
-0.41421356237309509
10
-63.000000000001002
20
142.4999990405374
10
-63.000000000001002
20
96.499999040537446
42
-0.41421356237309509
10
-65.000000000000995
20
94.49999904053746
10
-104.00000000000325
20
94.49999904053746
42
0.41421356237309509
10
-106.00000000000324
20
92.49999904053746
10
-106.00000000000324
20
88.499999040537446
42
-0.41421356237309509
10
-108.00000000000324
20
86.499999040537446
10
-114.00000000000234
20
86.499999040537446
10
-114.00000000000216
20
61.499999040537446
10
-108.00000000000213
20
61.499999040537446
42
-0.41421356237309509
10
-106.00000000000215
20
59.49999904053746
10
-106.00000000000215
20
55.499999040537432
42
-0.41421356237309509
10
-108.00000000000213
20
53.499999040537446
0
ENDSEC
0
SECTION
2
OBJECTS
0
DICTIONARY
5
C
100
AcDbDictionary
3
ACAD_GROUP
350
D
3
ACAD_MLINESTYLE
350
17
0
DICTIONARY
5
D
100
AcDbDictionary
0
DICTIONARY
5
1A
330
C
100
AcDbDictionary
0
DICTIONARY
5
17
100
AcDbDictionary
0
ENDSEC
0
EOF
