0
SECTION
2
HEADER
9
$INSUNITS
70
4
9
$ACADVER
1
AC1014
9
$HANDSEED
5
FFFF
0
ENDSEC
0
SECTION
2
TABLES
0
TABLE
2
VPORT
5
8
100
AcDbSymbolTable
0
ENDTAB
0
TABLE
2
LTYPE
5
5
100
AcDbSymbolTable
0
LTYPE
5
14
100
AcDbSymbolTableRecord
100
AcDbLinetypeTableRecord
2
BYBLOCK
70
0
0
LTYPE
5
15
100
AcDbSymbolTableRecord
100
AcDbLinetypeTableRecord
2
BYLAYER
70
0
0
ENDTAB
0
TABLE
2
LAYER
5
2
100
AcDbSymbolTable
70
2
0
LAYER
5
50
100
AcDbSymbolTableRecord
100
AcDbLayerTableRecord
2
0
70
0
6
CONTINUOUS
0
ENDTAB
0
TABLE
2
STYLE
5
3
100
AcDbSymbolTable
70
1
0
STYLE
5
11
100
AcDbSymbolTableRecord
100
AcDbTextStyleTableRecord
2
STANDARD
70
0
0
ENDTAB
0
TABLE
2
VIEW
5
6
100
AcDbSymbolTable
70
0
0
ENDTAB
0
TABLE
2
UCS
5
7
100
AcDbSymbolTable
70
0
0
ENDTAB
0
TABLE
2
APPID
5
9
100
AcDbSymbolTable
70
2
0
APPID
5
12
100
AcDbSymbolTableRecord
100
AcDbRegAppTableRecord
2
ACAD
70
0
0
ENDTAB
0
TABLE
2
DIMSTYLE
5
A
100
AcDbSymbolTable
70
1
0
ENDTAB
0
TABLE
2
BLOCK_RECORD
5
1
100
AcDbSymbolTable
70
1
0
BLOCK_RECORD
5
1F
100
AcDbSymbolTableRecord
100
AcDbBlockTableRecord
2
*MODEL_SPACE
0
BLOCK_RECORD
5
1B
100
AcDbSymbolTableRecord
100
AcDbBlockTableRecord
2
*PAPER_SPACE
0
ENDTAB
0
ENDSEC
0
SECTION
2
BLOCKS
0
BLOCK
5
20
100
AcDbEntity
100
AcDbBlockBegin
2
*MODEL_SPACE
0
ENDBLK
5
21
100
AcDbEntity
100
AcDbBlockEnd
0
BLOCK
5
1C
100
AcDbEntity
100
AcDbBlockBegin
2
*PAPER_SPACE
0
ENDBLK
5
1D
100
AcDbEntity
100
AcDbBlockEnd
0
ENDSEC
0
SECTION
2
ENTITIES
0
LWPOLYLINE
5
100
100
AcDbEntity
8
0
100
AcDbPolyline
90
28
70
1
43
0.0
10
-65.808401107788939
20
-364.50000190734846
10
-51.808401107788953
20
-364.50000190734852
10
-51.808401107788626
20
-145.00000190734949
10
-93.308401107789365
20
-145.00000190734931
42
-0.41421356237309331
10
-96.308401107789336
20
-142.00000190734931
10
-96.308401107789408
20
-100.50000190734735
10
-245.30840110778939
20
-100.50000190734701
10
-245.30840110778951
20
-142.00000190734704
42
-0.41421356237309503
10
-248.30840110778948
20
-145.00000190734704
10
-289.80840110779002
20
-145.00000190734681
10
-289.80840110779002
20
-364.50000190734795
10
-275.80840110779002
20
-364.50000190734795
10
-275.80840110779008
20
-370.50000190734795
10
-209.30840110778911
20
-370.50000190734812
10
-209.308401107789
20
-361.00000190734806
10
-197.30840110778902
20
-361.00000190734812
10
-197.30840110778894
20
-323.00000190734829
42
-0.41421356237309503
10
-194.30840110778888
20
-320.00000190734823
10
-147.308401107789
20
-320.00000190734823
42
-0.41421356237309503
10
-144.30840110778894
20
-323.00000190734829
10
-144.30840110778905
20
-361.00000190734818
10
-131.30840110778908
20
-361.00000190734823
10
-131.30840110778908
20
-370.50000190734835
10
-115.30840110778908
20
-370.50000190734835
10
-115.30840110778904
20
-357.50000190734829
10
-103.30840110778902
20
-357.50000190734841
10
-103.30840110778907
20
-370.50000190734841
10
-65.808401107788953
20
-370.50000190734858
0
LWPOLYLINE
5
101
100
AcDbEntity
8
0
100
AcDbPolyline
90
28
70
1
43
0.0
10
-65.808401107788939
20
-364.50000190734846
10
-51.808401107788946
20
-364.50000190734846
10
-51.808401107788626
20
-145.00000190734951
10
-93.308401107789365
20
-145.00000190734931
42
-0.41421356237309331
10
-96.308401107789336
20
-142.00000190734931
10
-96.308401107789408
20
-100.50000190734735
10
-245.30840110778939
20
-100.500001907347
10
-245.30840110778951
20
-142.00000190734707
42
-0.41421356237309331
10
-248.30840110778948
20
-145.00000190734704
10
-289.80840110779002
20
-145.00000190734684
10
-289.80840110779002
20
-364.50000190734795
10
-275.80840110779002
20
-364.50000190734795
10
-275.80840110779002
20
-370.50000190734795
10
-209.30840110778911
20
-370.50000190734812
10
-209.308401107789
20
-361.00000190734806
10
-197.30840110778902
20
-361.00000190734806
10
-197.30840110778894
20
-323.00000190734829
42
-0.41421356237309503
10
-194.30840110778888
20
-320.00000190734823
10
-147.308401107789
20
-320.00000190734823
42
-0.41421356237309503
10
-144.30840110778894
20
-323.00000190734829
10
-144.30840110778905
20
-361.00000190734818
10
-131.30840110778908
20
-361.00000190734818
10
-131.30840110778908
20
-370.50000190734835
10
-115.30840110778908
20
-370.50000190734841
10
-115.30840110778904
20
-357.50000190734829
10
-103.30840110778902
20
-357.50000190734829
10
-103.30840110778907
20
-370.50000190734841
10
-65.808401107788953
20
-370.50000190734858
0
ENDSEC
0
SECTION
2
OBJECTS
0
DICTIONARY
5
C
100
AcDbDictionary
3
ACAD_GROUP
350
D
3
ACAD_MLINESTYLE
350
17
0
DICTIONARY
5
D
100
AcDbDictionary
0
DICTIONARY
5
1A
330
C
100
AcDbDictionary
0
DICTIONARY
5
17
100
AcDbDictionary
0
ENDSEC
0
EOF
