0
SECTION
2
HEADER
9
$INSUNITS
70
4
9
$ACADVER
1
AC1014
9
$HANDSEED
5
FFFF
0
ENDSEC
0
SECTION
2
TABLES
0
TABLE
2
VPORT
5
8
100
AcDbSymbolTable
0
ENDTAB
0
TABLE
2
LTYPE
5
5
100
AcDbSymbolTable
0
LTYPE
5
14
100
AcDbSymbolTableRecord
100
AcDbLinetypeTableRecord
2
BYBLOCK
70
0
0
LTYPE
5
15
100
AcDbSymbolTableRecord
100
AcDbLinetypeTableRecord
2
BYLAYER
70
0
0
ENDTAB
0
TABLE
2
LAYER
5
2
100
AcDbSymbolTable
70
2
0
LAYER
5
50
100
AcDbSymbolTableRecord
100
AcDbLayerTableRecord
2
0
70
0
6
CONTINUOUS
0
ENDTAB
0
TABLE
2
STYLE
5
3
100
AcDbSymbolTable
70
1
0
STYLE
5
11
100
AcDbSymbolTableRecord
100
AcDbTextStyleTableRecord
2
STANDARD
70
0
0
ENDTAB
0
TABLE
2
VIEW
5
6
100
AcDbSymbolTable
70
0
0
ENDTAB
0
TABLE
2
UCS
5
7
100
AcDbSymbolTable
70
0
0
ENDTAB
0
TABLE
2
APPID
5
9
100
AcDbSymbolTable
70
2
0
APPID
5
12
100
AcDbSymbolTableRecord
100
AcDbRegAppTableRecord
2
ACAD
70
0
0
ENDTAB
0
TABLE
2
DIMSTYLE
5
A
100
AcDbSymbolTable
70
1
0
ENDTAB
0
TABLE
2
BLOCK_RECORD
5
1
100
AcDbSymbolTable
70
1
0
BLOCK_RECORD
5
1F
100
AcDbSymbolTableRecord
100
AcDbBlockTableRecord
2
*MODEL_SPACE
0
BLOCK_RECORD
5
1B
100
AcDbSymbolTableRecord
100
AcDbBlockTableRecord
2
*PAPER_SPACE
0
ENDTAB
0
ENDSEC
0
SECTION
2
BLOCKS
0
BLOCK
5
20
100
AcDbEntity
100
AcDbBlockBegin
2
*MODEL_SPACE
0
ENDBLK
5
21
100
AcDbEntity
100
AcDbBlockEnd
0
BLOCK
5
1C
100
AcDbEntity
100
AcDbBlockBegin
2
*PAPER_SPACE
0
ENDBLK
5
1D
100
AcDbEntity
100
AcDbBlockEnd
0
ENDSEC
0
SECTION
2
ENTITIES
0
LINE
5
100
100
AcDbEntity
8
0
100
AcDbLine
10
-73.964950445882167
20
-75.891987567626543
30
-8.4566298408361718e-10
11
-73.964950445882081
21
-117.39198756762848
31
-8.4567353120235111e-10
0
LINE
5
101
100
AcDbEntity
8
0
100
AcDbLine
10
-73.964950445882081
20
-117.39198756762848
30
-8.4567353120235111e-10
11
75.035049554117677
21
-117.39198756762873
31
-8.4567353120235111e-10
0
LINE
5
102
100
AcDbEntity
8
0
100
AcDbLine
10
-118.46495044588281
20
-72.89198756762643
30
-8.4567353120235111e-10
11
-76.964950445882124
21
-72.891987567626501
31
-8.4567353120235111e-10
0
LINE
5
103
100
AcDbEntity
8
0
100
AcDbLine
10
78.035049554117734
20
-72.891987567628789
30
-8.4564577562673549e-10
11
119.53504955411819
21
-72.891987567628988
31
-8.4566298408361718e-10
0
LINE
5
104
100
AcDbEntity
8
0
100
AcDbLine
10
39.035049554117158
20
143.10801243237179
30
0
11
27.035049554117272
21
143.10801243237179
31
0
0
LINE
5
105
100
AcDbEntity
8
0
100
AcDbLine
10
-25.964950445882621
20
143.10801243237191
30
0
11
-38.964950445882579
21
143.10801243237196
31
-8.4566298408361718e-10
0
LINE
5
106
100
AcDbEntity
8
0
100
AcDbLine
10
27.035049554117272
20
143.10801243237179
30
0
11
27.035049554117165
21
103.10801243237194
31
4.4332503709764649e-26
0
LINE
5
107
100
AcDbEntity
8
0
100
AcDbLine
10
-54.964950445882586
20
139.60801243237202
30
-8.4566298408361718e-10
11
-66.964950445882579
21
139.60801243237211
31
-8.4566298408361718e-10
0
LINE
5
108
100
AcDbEntity
8
0
100
AcDbLine
10
24.035049554117123
20
100.10801243237194
30
-8.4571238900821299e-10
11
-22.96495044588271
21
100.10801243237205
31
-8.4566298408361718e-10
0
LINE
5
109
100
AcDbEntity
8
0
100
AcDbLine
10
-25.964950445882742
20
103.10801243237199
30
-8.4572848724207006e-10
11
-25.964950445882621
21
143.10801243237191
31
0
0
LINE
5
110
100
AcDbEntity
8
0
100
AcDbLine
10
-38.964950445882607
20
151.60801243237191
30
-8.4566298408361718e-10
11
-54.964950445882572
21
151.60801243237205
31
-8.4566298408361718e-10
0
LINE
5
111
100
AcDbEntity
8
0
100
AcDbLine
10
75.035049554117677
20
-117.39198756762873
30
0
11
75.035049554117762
21
-75.891987567628746
31
-4.3089427855680563e-32
0
LINE
5
112
100
AcDbEntity
8
0
100
AcDbLine
10
75.035049554117677
20
-117.39198756762873
30
-8.4567353120235111e-10
11
75.035049554117762
21
-75.89198756762876
31
-8.4566298408361718e-10
0
LINE
5
113
100
AcDbEntity
8
0
100
AcDbLine
10
39.035049554117265
20
151.60801243237191
30
-3.5615492639428524e-26
11
39.035049554117158
21
143.10801243237179
31
0
0
LINE
5
114
100
AcDbEntity
8
0
100
AcDbLine
10
-118.46495044588281
20
-72.891987567626387
30
-1.5963769292994603e-30
11
-76.964950445882124
21
-72.891987567626472
31
0
0
LINE
5
115
100
AcDbEntity
8
0
100
AcDbLine
10
78.035049554117734
20
-72.891987567628789
30
3.6981521372583195e-32
11
119.53504955411819
21
-72.891987567628973
31
0
0
LINE
5
116
100
AcDbEntity
8
0
100
AcDbLine
10
-54.964950445882572
20
151.60801243237205
30
-8.4566298408361718e-10
11
-54.964950445882586
21
139.60801243237202
31
-8.4566298408361718e-10
0
LINE
5
117
100
AcDbEntity
8
0
100
AcDbLine
10
24.035049554117123
20
100.10801243237194
30
-8.9979795168505972e-31
11
-22.96495044588271
21
100.10801243237209
31
0
0
LINE
5
118
100
AcDbEntity
8
0
100
AcDbLine
10
-38.964950445882579
20
143.10801243237196
30
-8.4566298408361718e-10
11
-38.964950445882607
21
151.60801243237191
31
-8.4566298408361718e-10
0
LINE
5
119
100
AcDbEntity
8
0
100
AcDbLine
10
-66.964950445882579
20
139.60801243237211
30
-8.4566298408361718e-10
11
-66.964950445882565
21
151.60801243237211
31
-8.4566298408361718e-10
0
LINE
5
120
100
AcDbEntity
8
0
100
AcDbLine
10
39.035049554117265
20
151.60801243237185
30
0
11
39.035049554117194
21
143.10801243237179
31
0
0
LINE
5
121
100
AcDbEntity
8
0
100
AcDbLine
10
119.53504955411819
20
-72.891987567628988
30
-8.4566298408361718e-10
11
119.53504955411809
21
143.10801243237131
31
2.5938166350556169e-30
0
LINE
5
122
100
AcDbEntity
8
0
100
AcDbLine
10
-118.46495044588259
20
143.10801243237125
30
-4.6832821508217949e-29
11
-118.46495044588281
21
-72.891987567626387
31
-1.5963769292994603e-30
0
ARC
5
123
100
AcDbEntity
8
0
100
AcDbCircle
10
-76.964950445882153
20
-75.891987567626543
30
0
40
2.9999999999999805
210
3.3739813925398004e-56
220
-1.8367099231598242e-40
230
1
100
AcDbArc
50
0
51
89.99999999999946
0
ARC
5
124
100
AcDbEntity
8
0
100
AcDbCircle
10
-22.96495044588271
20
103.10801243237199
30
-1.7789921910373654e-46
40
3.0000000000000338
210
5.2913887474248746e-47
220
2.8759321709942701e-32
230
1
100
AcDbArc
50
180
51
270
0
LINE
5
125
100
AcDbEntity
8
0
100
AcDbLine
10
109.53504955411809
20
151.60801243237131
30
2.5938166350556169e-30
11
39.035049554117265
21
151.60801243237185
31
0
0
ARC
5
126
100
AcDbEntity
8
0
100
AcDbCircle
10
78.035049554117734
20
-75.89198756762876
30
0
40
2.9999999999999716
210
-2.723077216690557e-47
220
-1.2327173790861183e-32
230
1
100
AcDbArc
50
90
51
180
0
LINE
5
127
100
AcDbEntity
8
0
100
AcDbLine
10
-118.46495044588259
20
143.10801243237125
30
-4.6832821508217949e-29
11
-118.46495044588281
21
-72.89198756762643
31
-8.4567353120235111e-10
0
LINE
5
128
100
AcDbEntity
8
0
100
AcDbLine
10
-73.964950445882167
20
-75.891987567626543
30
-1.0121944177619335e-55
11
-73.964950445882081
21
-117.39198756762848
31
4.3171227568818409e-32
0
ARC
5
129
100
AcDbEntity
8
0
100
AcDbCircle
10
24.035049554117123
20
103.10801243237194
30
0
40
3.0000000000000071
210
-6.0705363730115301e-46
220
-2.999326505616859e-31
230
1
100
AcDbArc
50
-90
51
0
0
LINE
5
130
100
AcDbEntity
8
0
100
AcDbLine
10
-66.964950445882579
20
139.60801243237202
30
0
11
-66.964950445882565
21
151.60801243237211
31
0
0
LINE
5
131
100
AcDbEntity
8
0
100
AcDbLine
10
-54.964950445882572
20
151.60801243237211
30
0
11
-54.964950445882586
21
139.60801243237202
31
0
0
LINE
5
132
100
AcDbEntity
8
0
100
AcDbLine
10
-54.964950445882586
20
139.60801243237202
30
0
11
-66.964950445882579
21
139.60801243237202
31
0
0
LINE
5
133
100
AcDbEntity
8
0
100
AcDbLine
10
-66.964950445882565
20
151.60801243237211
30
0
11
-108.46495044588259
21
151.60801243237125
31
-8.0793364468984845e-30
0
ARC
5
134
100
AcDbEntity
8
0
100
AcDbCircle
10
-76.964950445882153
20
-75.891987567626543
30
-8.4566298408361718e-10
40
2.9999999999999805
210
0
220
-0
230
1
100
AcDbArc
50
0
51
89.99999999999946
0
LINE
5
135
100
AcDbEntity
8
0
100
AcDbLine
10
119.53504955411819
20
-72.891987567628973
30
0
11
119.53504955411809
21
143.10801243237131
31
2.5938166350556169e-30
0
LINE
5
136
100
AcDbEntity
8
0
100
AcDbLine
10
-73.964950445882081
20
-117.39198756762848
30
4.3171227568818409e-32
11
75.035049554117677
21
-117.39198756762873
31
0
0
ARC
5
137
100
AcDbEntity
8
0
100
AcDbCircle
10
78.035049554117734
20
-75.89198756762876
30
-8.4564522051522317e-10
40
2.9999999999999716
210
-2.2660517890781732e-32
220
1.8503717077086118e-16
230
1
100
AcDbArc
50
90
51
180
0
ARC
5
138
100
AcDbEntity
8
0
100
AcDbCircle
10
24.035049554117123
20
103.10801243237194
30
-8.4570295211250368e-10
40
3.0000000000000071
210
3.8522880414328031e-31
220
-3.145631903104603e-15
230
1
100
AcDbArc
50
-90
51
0
0
LINE
5
139
100
AcDbEntity
8
0
100
AcDbLine
10
-38.964950445882579
20
143.10801243237191
30
5.4456646015235418e-26
11
-38.964950445882607
21
151.60801243237191
31
0
0
LINE
5
140
100
AcDbEntity
8
0
100
AcDbLine
10
39.035049554117194
20
143.10801243237179
30
0
11
27.035049554117272
21
143.10801243237188
31
0
0
LINE
5
141
100
AcDbEntity
8
0
100
AcDbLine
10
-25.964950445882742
20
103.10801243237199
30
-1.9157556680988515e-47
11
-25.964950445882636
21
143.10801243237191
31
-4.4332503690927352e-26
0
LINE
5
142
100
AcDbEntity
8
0
100
AcDbLine
10
27.035049554117272
20
143.10801243237188
30
0
11
27.035049554117165
21
103.10801243237194
31
-8.4566298408361718e-10
0
ARC
5
143
100
AcDbEntity
8
0
100
AcDbCircle
10
-22.96495044588271
20
103.10801243237199
30
-8.4572848724207006e-10
40
3.0000000000000338
210
0
220
0
230
1
100
AcDbArc
50
180
51
270
0
LINE
5
144
100
AcDbEntity
8
0
100
AcDbLine
10
-25.964950445882636
20
143.10801243237191
30
-4.4332503690927352e-26
11
-38.964950445882579
21
143.10801243237191
31
5.4456646015235418e-26
0
LINE
5
145
100
AcDbEntity
8
0
100
AcDbLine
10
-38.964950445882607
20
151.60801243237191
30
0
11
-54.964950445882572
21
151.60801243237211
31
0
0
LINE
5
146
100
AcDbEntity
8
0
100
AcDbLine
10
-108.46495044588259
20
151.60801243237125
30
-8.0793364468984845e-30
11
-66.964950445882565
21
151.60801243237211
31
-8.4566298408361718e-10
0
LINE
5
147
100
AcDbEntity
8
0
100
AcDbLine
10
-66.964950445882579
20
139.60801243237202
30
0
11
-54.964950445882586
21
139.60801243237202
31
0
0
LINE
5
148
100
AcDbEntity
8
0
100
AcDbLine
10
-108.46495044588259
20
151.60801243237125
30
-4.6832821508217949e-29
11
-109.96495044588259
21
151.60801243237125
31
-4.6832821508217949e-29
0
ARC
5
149
100
AcDbEntity
8
0
100
AcDbCircle
10
-118.46495044588259
20
151.60801243237125
30
-4.6832821508217949e-29
40
8.4999999999999964
210
0
220
0
230
1
100
AcDbArc
50
-90
51
0
0
LINE
5
150
100
AcDbEntity
8
0
100
AcDbLine
10
109.53504955411809
20
151.60801243237131
30
2.5938166350556169e-30
11
111.03504955411809
21
151.60801243237131
31
2.5938166350556169e-30
0
ARC
5
151
100
AcDbEntity
8
0
100
AcDbCircle
10
119.53504955411809
20
151.60801243237131
30
2.5938166350556169e-30
40
8.4999999999999964
210
0
220
0
230
1
100
AcDbArc
50
180
51
270
0
ENDSEC
0
SECTION
2
OBJECTS
0
DICTIONARY
5
C
100
AcDbDictionary
3
ACAD_GROUP
350
D
3
ACAD_MLINESTYLE
350
17
0
DICTIONARY
5
D
100
AcDbDictionary
0
DICTIONARY
5
1A
330
C
100
AcDbDictionary
0
DICTIONARY
5
17
100
AcDbDictionary
0
ENDSEC
0
EOF
