0
SECTION
2
HEADER
9
$INSUNITS
70
4
9
$ACADVER
1
AC1014
9
$HANDSEED
5
FFFF
0
ENDSEC
0
SECTION
2
TABLES
0
TABLE
2
VPORT
5
8
100
AcDbSymbolTable
0
ENDTAB
0
TABLE
2
LTYPE
5
5
100
AcDbSymbolTable
0
LTYPE
5
14
100
AcDbSymbolTableRecord
100
AcDbLinetypeTableRecord
2
BYBLOCK
70
0
0
LTYPE
5
15
100
AcDbSymbolTableRecord
100
AcDbLinetypeTableRecord
2
BYLAYER
70
0
0
ENDTAB
0
TABLE
2
LAYER
5
2
100
AcDbSymbolTable
70
2
0
LAYER
5
50
100
AcDbSymbolTableRecord
100
AcDbLayerTableRecord
2
0
70
0
6
CONTINUOUS
0
ENDTAB
0
TABLE
2
STYLE
5
3
100
AcDbSymbolTable
70
1
0
STYLE
5
11
100
AcDbSymbolTableRecord
100
AcDbTextStyleTableRecord
2
STANDARD
70
0
0
ENDTAB
0
TABLE
2
VIEW
5
6
100
AcDbSymbolTable
70
0
0
ENDTAB
0
TABLE
2
UCS
5
7
100
AcDbSymbolTable
70
0
0
ENDTAB
0
TABLE
2
APPID
5
9
100
AcDbSymbolTable
70
2
0
APPID
5
12
100
AcDbSymbolTableRecord
100
AcDbRegAppTableRecord
2
ACAD
70
0
0
ENDTAB
0
TABLE
2
DIMSTYLE
5
A
100
AcDbSymbolTable
70
1
0
ENDTAB
0
TABLE
2
BLOCK_RECORD
5
1
100
AcDbSymbolTable
70
1
0
BLOCK_RECORD
5
1F
100
AcDbSymbolTableRecord
100
AcDbBlockTableRecord
2
*MODEL_SPACE
0
BLOCK_RECORD
5
1B
100
AcDbSymbolTableRecord
100
AcDbBlockTableRecord
2
*PAPER_SPACE
0
ENDTAB
0
ENDSEC
0
SECTION
2
BLOCKS
0
BLOCK
5
20
100
AcDbEntity
100
AcDbBlockBegin
2
*MODEL_SPACE
0
ENDBLK
5
21
100
AcDbEntity
100
AcDbBlockEnd
0
BLOCK
5
1C
100
AcDbEntity
100
AcDbBlockBegin
2
*PAPER_SPACE
0
ENDBLK
5
1D
100
AcDbEntity
100
AcDbBlockEnd
0
ENDSEC
0
SECTION
2
ENTITIES
0
LWPOLYLINE
5
100
100
AcDbEntity
8
0
100
AcDbPolyline
90
8
70
1
43
0.0
10
37.951027473436447
20
70.806973056968047
42
-0.41421356237309503
10
39.951027473436405
20
72.806973056968076
10
49.951027473436454
20
72.806973056968246
42
-0.41421356237309243
10
51.951027473436504
20
70.806973056968303
10
51.95102747344103
20
-163.19302694303184
42
-0.41421356237308982
10
49.951027473441044
20
-165.19302694303184
10
39.951027473441023
20
-165.19302694303204
42
-0.41421356237310025
10
37.951027473440924
20
-163.19302694303195
0
LWPOLYLINE
5
101
100
AcDbEntity
8
0
100
AcDbPolyline
90
31
70
1
43
0.0
10
45.943809192412047
20
44.010357085558773
42
-0.41421357110199536
10
45.11698627574539
20
43.183534144250864
10
44.786257424486635
20
43.183534144250885
42
-0.41421357110198903
10
43.959434507819992
20
44.010357085558752
10
43.95943450781985
20
53.800108006943503
42
0.66817819406549417
10
42.26566484548929
20
54.501690326977993
10
42.168795979055602
20
54.404821460544284
42
0.19891205095753167
10
41.975059034707982
20
53.937100702374394
10
41.975059034708089
20
44.010357085558738
42
-0.41421357110199536
10
41.148236118041446
20
43.183534144250842
10
40.817507266782691
20
43.183534144250835
42
-0.41421357110199214
10
39.990684350116048
20
44.010357085558724
10
39.990684350115878
20
54.404821460544284
42
-0.19891246224043471
10
40.475026316725007
20
55.574126115788225
10
41.893384944431808
20
56.992485532014818
42
0.19891235980682923
10
43.297976016782442
20
60.383467534034679
10
43.297976016782478
20
63.027284464587012
10
46.605267683449121
20
63.027284464587026
10
46.605267683449156
20
60.3834675340347
42
0.19891235538167559
10
48.009858558669976
20
56.992485532014854
10
49.428217728484114
20
55.574126115788317
42
-0.1989124397827802
10
49.912559350115885
20
54.404821460544355
10
49.912559350116027
20
43.51426331584581
42
-0.35262314511278275
10
49.652311871194769
20
43.191131655535884
42
-0.43119835961141378
10
49.572884618748759
20
43.245408281084067
42
0.26557092849594577
10
48.137663618756278
20
45.033821656312078
42
-0.30808497369520965
10
47.928184271264023
20
45.341523463005096
10
47.928184271263902
20
53.937100702374451
42
0.19891195471028822
10
47.734447918306117
20
54.404821460544341
10
47.637579249002364
20
54.501690326978022
42
0.66817854097105678
10
45.943809192411926
20
53.800108006943518
0
CIRCLE
5
102
100
AcDbEntity
8
0
100
AcDbCircle
10
44.951027473435836
20
67.806973056969014
30
4.9471324814476247e-07
40
1.5500000000000003
210
-3.1192238612823165e-22
220
4.7950285598457727e-21
230
1
0
CIRCLE
5
103
100
AcDbEntity
8
0
100
AcDbCircle
10
44.951027473436191
20
39.306973056968999
30
4.9471328367189926e-07
40
1.5499999999999914
210
-3.1192238612823165e-22
220
4.7950285598457727e-21
230
1
0
CIRCLE
5
104
100
AcDbEntity
8
0
100
AcDbCircle
10
44.951027473436866
20
-17.693026943031004
30
4.9471328367189926e-07
40
1.5500000000000003
210
-3.1192238612823165e-22
220
4.7950285598457727e-21
230
1
0
CIRCLE
5
105
100
AcDbEntity
8
0
100
AcDbCircle
10
44.951027473437577
20
-74.693026943031001
30
4.9471328367189926e-07
40
1.5500000000000003
210
-3.1192238612823165e-22
220
4.7950285598457727e-21
230
1
0
CIRCLE
5
106
100
AcDbEntity
8
0
100
AcDbCircle
10
44.951027473438288
20
-131.69302694303101
30
4.9471331919903605e-07
40
1.5500000000000003
210
-3.1192238612823165e-22
220
4.7950285598457727e-21
230
1
0
CIRCLE
5
107
100
AcDbEntity
8
0
100
AcDbCircle
10
44.951027473438607
20
-160.19302694303099
30
4.9471331919903605e-07
40
1.5500000000000003
210
-3.1192238612823165e-22
220
4.7950285598457727e-21
230
1
0
CIRCLE
5
108
100
AcDbEntity
8
0
100
AcDbCircle
10
44.951027473437932
20
-103.19302694303101
30
4.9471328367189926e-07
40
1.5500000000000003
210
-3.1192238612823165e-22
220
4.7950285598457727e-21
230
1
0
CIRCLE
5
109
100
AcDbEntity
8
0
100
AcDbCircle
10
44.951027473437222
20
-46.193026943031008
30
4.9471328367189926e-07
40
1.5500000000000003
210
-3.1192238612823165e-22
220
4.7950285598457727e-21
230
1
0
CIRCLE
5
110
100
AcDbEntity
8
0
100
AcDbCircle
10
44.951027473436547
20
10.806973056969005
30
4.9471328367189926e-07
40
1.5500000000000003
210
-3.1192238612823165e-22
220
4.7950285598457727e-21
230
1
0
ENDSEC
0
SECTION
2
OBJECTS
0
DICTIONARY
5
C
100
AcDbDictionary
3
ACAD_GROUP
350
D
3
ACAD_MLINESTYLE
350
17
0
DICTIONARY
5
D
100
AcDbDictionary
0
DICTIONARY
5
1A
330
C
100
AcDbDictionary
0
DICTIONARY
5
17
100
AcDbDictionary
0
ENDSEC
0
EOF
