0
SECTION
2
HEADER
9
$INSUNITS
70
4
9
$ACADVER
1
AC1014
9
$HANDSEED
5
FFFF
0
ENDSEC
0
SECTION
2
TABLES
0
TABLE
2
VPORT
5
8
100
AcDbSymbolTable
0
ENDTAB
0
TABLE
2
LTYPE
5
5
100
AcDbSymbolTable
0
LTYPE
5
14
100
AcDbSymbolTableRecord
100
AcDbLinetypeTableRecord
2
BYBLOCK
70
0
0
LTYPE
5
15
100
AcDbSymbolTableRecord
100
AcDbLinetypeTableRecord
2
BYLAYER
70
0
0
ENDTAB
0
TABLE
2
LAYER
5
2
100
AcDbSymbolTable
70
2
0
LAYER
5
50
100
AcDbSymbolTableRecord
100
AcDbLayerTableRecord
2
0
70
0
6
CONTINUOUS
0
ENDTAB
0
TABLE
2
STYLE
5
3
100
AcDbSymbolTable
70
1
0
STYLE
5
11
100
AcDbSymbolTableRecord
100
AcDbTextStyleTableRecord
2
STANDARD
70
0
0
ENDTAB
0
TABLE
2
VIEW
5
6
100
AcDbSymbolTable
70
0
0
ENDTAB
0
TABLE
2
UCS
5
7
100
AcDbSymbolTable
70
0
0
ENDTAB
0
TABLE
2
APPID
5
9
100
AcDbSymbolTable
70
2
0
APPID
5
12
100
AcDbSymbolTableRecord
100
AcDbRegAppTableRecord
2
ACAD
70
0
0
ENDTAB
0
TABLE
2
DIMSTYLE
5
A
100
AcDbSymbolTable
70
1
0
ENDTAB
0
TABLE
2
BLOCK_RECORD
5
1
100
AcDbSymbolTable
70
1
0
BLOCK_RECORD
5
1F
100
AcDbSymbolTableRecord
100
AcDbBlockTableRecord
2
*MODEL_SPACE
0
BLOCK_RECORD
5
1B
100
AcDbSymbolTableRecord
100
AcDbBlockTableRecord
2
*PAPER_SPACE
0
ENDTAB
0
ENDSEC
0
SECTION
2
BLOCKS
0
BLOCK
5
20
100
AcDbEntity
100
AcDbBlockBegin
2
*MODEL_SPACE
0
ENDBLK
5
21
100
AcDbEntity
100
AcDbBlockEnd
0
BLOCK
5
1C
100
AcDbEntity
100
AcDbBlockBegin
2
*PAPER_SPACE
0
ENDBLK
5
1D
100
AcDbEntity
100
AcDbBlockEnd
0
ENDSEC
0
SECTION
2
ENTITIES
0
LWPOLYLINE
5
100
100
AcDbEntity
8
0
100
AcDbPolyline
90
8
70
1
43
0.0
10
134.4994889211446
20
-280.74749091369165
42
-0.41421356237309764
10
132.49948892114458
20
-282.74749091369165
10
122.49948892114416
20
-282.74749091369165
42
-0.41421356237309243
10
120.49948892114416
20
-280.74749091369165
10
120.499488921145
20
-30.747490913691657
42
-0.41421356237309309
10
122.499488921145
20
-28.747490913691671
10
132.49948892114543
20
-28.747490913691685
42
-0.41421356237309503
10
134.49948892114543
20
-30.747490913691671
0
LWPOLYLINE
5
101
100
AcDbEntity
8
0
100
AcDbPolyline
90
31
70
1
43
0.0
10
125.84624331812046
20
-41.042786533485341
10
125.84624331812046
20
-43.686603464037653
42
-0.19891235980683211
10
124.44165224576972
20
-47.077585466057528
10
123.02329361806295
20
-48.495944882284086
42
0.19891246224044334
10
122.53895165145379
20
-49.665249537528034
10
122.53895165145377
20
-60.059713912513587
42
0.41421357110199214
10
123.36577456812043
20
-60.88653685382149
10
123.69650341937918
20
-60.886536853821511
42
0.41421357110199536
10
124.52332633604586
20
-60.05971391251358
10
124.52332633604587
20
-50.132970295697923
42
-0.1989120509575317
10
124.71706328039348
20
-49.665249537528034
10
124.81393214682718
20
-49.568380671094332
42
-0.66817819406548373
10
126.50770180915774
20
-50.269962991128843
10
126.50770180915772
20
-60.059713912513601
42
0.41421357110199214
10
127.33452472582437
20
-60.886536853821497
10
127.66525357708312
20
-60.886536853821497
42
0.41421357110199536
10
128.49207649374978
20
-60.059713912513587
10
128.49207649374981
20
-50.269962991128843
42
-0.66817854097106599
10
130.18584655034027
20
-49.56838067109436
10
130.28271521964399
20
-49.665249537528041
42
-0.19891195471029072
10
130.47645157260177
20
-50.13297029569793
10
130.47645157260175
20
-58.728547535067285
42
0.30808497369521964
10
130.68593092009405
20
-59.036249341760325
42
-0.26557092849594516
10
132.12115192008648
20
-60.82466271698835
42
0.43119835961141378
10
132.20057917253249
20
-60.878939342536526
42
0.35262314511279025
10
132.46082665145374
20
-60.5558076822266
10
132.46082665145374
20
-49.665249537528055
42
0.19891243978277764
10
131.97648502982202
20
-48.495944882284107
10
130.55812586000792
20
-47.077585466057535
42
-0.19891235538167729
10
129.15353498478711
20
-43.686603464037653
10
129.15353498478711
20
-41.042786533485334
0
CIRCLE
5
102
100
AcDbEntity
8
0
100
AcDbCircle
10
127.49948892114475
20
-275.74749091369165
30
7.1054273576010019e-14
40
1.5500000000000003
210
4.1053665947016334e-47
220
2.4651903288156619e-32
230
1
0
CIRCLE
5
103
100
AcDbEntity
8
0
100
AcDbCircle
10
127.49948892114494
20
-155.74749091369168
30
7.1054273576010019e-14
40
1.5500000000000003
210
4.1053665947016334e-47
220
2.4651903288156619e-32
230
1
0
CIRCLE
5
104
100
AcDbEntity
8
0
100
AcDbCircle
10
127.49948892114516
20
-35.747490913691685
30
7.1054273576010019e-14
40
1.5500000000000003
210
4.1053665947016334e-47
220
2.4651903288156619e-32
230
1
0
CIRCLE
5
105
100
AcDbEntity
8
0
100
AcDbCircle
10
127.4994889211451
20
-65.747490913691692
30
7.1054273576010019e-14
40
1.5499999999999825
210
4.1053665947016334e-47
220
2.4651903288156619e-32
230
1
0
CIRCLE
5
106
100
AcDbEntity
8
0
100
AcDbCircle
10
127.4994889211449
20
-185.74749091369171
30
7.1054273576010019e-14
40
1.5500000000000003
210
4.1053665947016334e-47
220
2.4651903288156619e-32
230
1
0
CIRCLE
5
107
100
AcDbEntity
8
0
100
AcDbCircle
10
127.4994889211448
20
-245.74749091369168
30
7.1054273576010019e-14
40
1.5500000000000003
210
4.1053665947016334e-47
220
2.4651903288156619e-32
230
1
0
CIRCLE
5
108
100
AcDbEntity
8
0
100
AcDbCircle
10
127.499488921145
20
-125.74749091369169
30
7.1054273576010019e-14
40
1.5500000000000003
210
4.1053665947016334e-47
220
2.4651903288156619e-32
230
1
0
CIRCLE
5
109
100
AcDbEntity
8
0
100
AcDbCircle
10
127.49948892114504
20
-95.747490913691692
30
7.1054273576010019e-14
40
1.5500000000000003
210
4.1053665947016334e-47
220
2.4651903288156619e-32
230
1
0
CIRCLE
5
110
100
AcDbEntity
8
0
100
AcDbCircle
10
127.49948892114486
20
-215.74749091369171
30
7.1054273576010019e-14
40
1.5500000000000003
210
4.1053665947016334e-47
220
2.4651903288156619e-32
230
1
0
ENDSEC
0
SECTION
2
OBJECTS
0
DICTIONARY
5
C
100
AcDbDictionary
3
ACAD_GROUP
350
D
3
ACAD_MLINESTYLE
350
17
0
DICTIONARY
5
D
100
AcDbDictionary
0
DICTIONARY
5
1A
330
C
100
AcDbDictionary
0
DICTIONARY
5
17
100
AcDbDictionary
0
ENDSEC
0
EOF
