0
SECTION
2
HEADER
9
$INSUNITS
70
4
9
$ACADVER
1
AC1014
9
$HANDSEED
5
FFFF
0
ENDSEC
0
SECTION
2
TABLES
0
TABLE
2
VPORT
5
8
100
AcDbSymbolTable
0
ENDTAB
0
TABLE
2
LTYPE
5
5
100
AcDbSymbolTable
0
LTYPE
5
14
100
AcDbSymbolTableRecord
100
AcDbLinetypeTableRecord
2
BYBLOCK
70
0
0
LTYPE
5
15
100
AcDbSymbolTableRecord
100
AcDbLinetypeTableRecord
2
BYLAYER
70
0
0
ENDTAB
0
TABLE
2
LAYER
5
2
100
AcDbSymbolTable
70
2
0
LAYER
5
50
100
AcDbSymbolTableRecord
100
AcDbLayerTableRecord
2
0
70
0
6
CONTINUOUS
0
ENDTAB
0
TABLE
2
STYLE
5
3
100
AcDbSymbolTable
70
1
0
STYLE
5
11
100
AcDbSymbolTableRecord
100
AcDbTextStyleTableRecord
2
STANDARD
70
0
0
ENDTAB
0
TABLE
2
VIEW
5
6
100
AcDbSymbolTable
70
0
0
ENDTAB
0
TABLE
2
UCS
5
7
100
AcDbSymbolTable
70
0
0
ENDTAB
0
TABLE
2
APPID
5
9
100
AcDbSymbolTable
70
2
0
APPID
5
12
100
AcDbSymbolTableRecord
100
AcDbRegAppTableRecord
2
ACAD
70
0
0
ENDTAB
0
TABLE
2
DIMSTYLE
5
A
100
AcDbSymbolTable
70
1
0
ENDTAB
0
TABLE
2
BLOCK_RECORD
5
1
100
AcDbSymbolTable
70
1
0
BLOCK_RECORD
5
1F
100
AcDbSymbolTableRecord
100
AcDbBlockTableRecord
2
*MODEL_SPACE
0
BLOCK_RECORD
5
1B
100
AcDbSymbolTableRecord
100
AcDbBlockTableRecord
2
*PAPER_SPACE
0
ENDTAB
0
ENDSEC
0
SECTION
2
BLOCKS
0
BLOCK
5
20
100
AcDbEntity
100
AcDbBlockBegin
2
*MODEL_SPACE
0
ENDBLK
5
21
100
AcDbEntity
100
AcDbBlockEnd
0
BLOCK
5
1C
100
AcDbEntity
100
AcDbBlockBegin
2
*PAPER_SPACE
0
ENDBLK
5
1D
100
AcDbEntity
100
AcDbBlockEnd
0
ENDSEC
0
SECTION
2
ENTITIES
0
LINE
5
100
100
AcDbEntity
8
0
100
AcDbLine
10
-139.99999731779096
20
293.18407485475677
30
0
11
-139.99999731779096
21
265.54948118881123
31
0
0
LINE
5
101
100
AcDbEntity
8
0
100
AcDbLine
10
-109.99998971085178
20
-81.842555801665867
30
0
11
14.999999664723873
21
-81.842559031202441
31
0
0
LINE
5
102
100
AcDbEntity
8
0
100
AcDbLine
10
14.999999664723873
20
-81.842559031202441
30
0
11
98.999996686379916
21
-81.842561201450991
31
0
0
LINE
5
103
100
AcDbEntity
8
0
100
AcDbLine
10
139.99998931820093
20
-76.842531774390338
30
0
11
139.99999064892671
21
-52.900006701800677
31
0
0
LINE
5
104
100
AcDbEntity
8
0
100
AcDbLine
10
139.9999913158843
20
-40.900054393267169
30
0
11
139.99999926382139
21
102.09987074403678
31
0
0
ARC
5
105
100
AcDbEntity
8
0
100
AcDbCircle
10
142.49999926099565
20
102.09999311329938
30
0
40
2.5000000001690967
210
0
220
0
230
1
100
AcDbArc
50
90.000051716830555
51
180.00280449685138
0
ARC
5
106
100
AcDbEntity
8
0
100
AcDbCircle
10
142.49999697084607
20
108.09999311342835
30
0
40
3.4999999999608988
210
0
220
0
230
1
100
AcDbArc
50
-89.999999450334556
51
90.000000549665458
0
ARC
5
107
100
AcDbEntity
8
0
100
AcDbCircle
10
142.49999992764765
20
114.09999311338791
30
0
40
2.4999999999999538
210
0
220
0
230
1
100
AcDbArc
50
180.00294508226185
51
269.99993146556784
0
LINE
5
108
100
AcDbEntity
8
0
100
AcDbLine
10
139.99999993095031
20
114.099864609929
30
0
11
140.00000787872796
21
257.09999325238709
31
0
0
LINE
5
109
100
AcDbEntity
8
0
100
AcDbLine
10
139.99999664723873
20
269.09999311342835
30
0
11
139.99999664723873
21
293.09999311342835
31
0
0
LINE
5
110
100
AcDbEntity
8
0
100
AcDbLine
10
134.9999966472387
20
298.09999311342835
30
0
11
110.99999660809742
21
298.09999311342835
31
0
0
LINE
5
111
100
AcDbEntity
8
0
100
AcDbLine
10
98.999996647238788
20
298.0999877136432
30
0
11
14.999999664723873
21
298.09998988389174
31
0
0
LINE
5
112
100
AcDbEntity
8
0
100
AcDbLine
10
14.999999664723873
20
298.09998988389174
30
0
11
-109.99999731779099
21
298.09999311342835
31
0
0
LINE
5
113
100
AcDbEntity
8
0
100
AcDbLine
10
-109.99999731779099
20
298.09999311342835
30
0
11
-135.00070396601924
21
298.10000008924601
31
0
0
CIRCLE
5
114
100
AcDbEntity
8
0
100
AcDbCircle
10
142.49999697084607
20
108.09999311342835
30
0
40
1.7000000000000171
210
0
220
-0
230
1
0
ARC
5
115
100
AcDbEntity
8
0
100
AcDbCircle
10
-142.49998983148922
20
253.10000015265985
30
0
40
3.4999999999999787
210
0
220
-0
230
1
100
AcDbArc
50
89.999999532721731
51
269.99999953272408
0
CIRCLE
5
116
100
AcDbEntity
8
0
100
AcDbCircle
10
-142.49998983148922
20
253.10000015265985
30
0
40
1.7000000000000171
210
-0
220
0
230
1
0
ARC
5
117
100
AcDbEntity
8
0
100
AcDbCircle
10
-142.49999527818491
20
247.10000015266229
30
0
40
2.4999999999999645
210
-0
220
0
230
1
100
AcDbArc
50
0
51
89.999998829652284
0
ARC
5
118
100
AcDbEntity
8
0
100
AcDbCircle
10
-142.49998978057607
20
259.10000015265973
30
0
40
2.4999999999999294
210
0
220
0
230
1
100
AcDbArc
50
269.99999887326396
51
359.99999914622634
0
CIRCLE
5
119
100
AcDbEntity
8
0
100
AcDbCircle
10
-94.99998971085175
20
300.59999462678564
30
0
40
1.7000000000000173
210
0
220
0
230
1
0
ARC
5
120
100
AcDbEntity
8
0
100
AcDbCircle
10
-94.99998971085175
20
300.59999462678564
30
0
40
3.5000000000000142
210
-0
220
0
230
1
100
AcDbArc
50
0
51
180
0
ARC
5
121
100
AcDbEntity
8
0
100
AcDbCircle
10
-100.99998971084926
20
300.60000008924339
30
0
40
2.5
210
-0
220
0
230
1
100
AcDbArc
50
270.00000089699449
51
360
0
ARC
5
122
100
AcDbEntity
8
0
100
AcDbCircle
10
-88.999989710851764
20
300.59999458260597
30
0
40
2.4999999999999645
210
0
220
0
230
1
100
AcDbArc
50
180
51
269.9999996439671
0
CIRCLE
5
123
100
AcDbEntity
8
0
100
AcDbCircle
10
-142.4999897038995
20
108.1000001526597
30
0
40
1.7000000000000171
210
-0
220
0
230
1
0
ARC
5
124
100
AcDbEntity
8
0
100
AcDbCircle
10
-142.4999897038995
20
108.1000001526597
30
0
40
3.5000000000000142
210
0
220
-0
230
1
100
AcDbArc
50
89.999999998658168
51
269.99999999865861
0
ARC
5
125
100
AcDbEntity
8
0
100
AcDbCircle
10
-142.49999509639326
20
102.10000015266212
30
0
40
2.4999999999998939
210
-0
220
0
230
1
100
AcDbArc
50
-8.5377364625159387e-07
51
89.999998133151152
0
ARC
5
126
100
AcDbEntity
8
0
100
AcDbCircle
10
-142.49998971085171
20
114.10000015265967
30
0
40
2.4999999999999654
210
0
220
0
230
1
100
AcDbArc
50
-90.000001719455128
51
0
0
CIRCLE
5
127
100
AcDbEntity
8
0
100
AcDbCircle
10
-142.49998431112559
20
-36.842557378126536
30
0
40
1.7000000000000171
210
-0
220
0
230
1
0
ARC
5
128
100
AcDbEntity
8
0
100
AcDbCircle
10
-142.49998431112559
20
-36.842557378126536
30
0
40
3.5000000000000098
210
0
220
-0
230
1
100
AcDbArc
50
89.99999999999396
51
269.99999999999392
0
ARC
5
129
100
AcDbEntity
8
0
100
AcDbCircle
10
-142.49998971085174
20
-42.84255737812412
30
0
40
2.5
210
0
220
-0
230
1
100
AcDbArc
50
8.5377364625159387e-07
51
89.999999966616897
0
ARC
5
130
100
AcDbEntity
8
0
100
AcDbCircle
10
-142.49998431118652
20
-30.842557378126561
30
0
40
2.4999999999999645
210
0
220
0
230
1
100
AcDbArc
50
269.9999999652249
51
360
0
CIRCLE
5
131
100
AcDbEntity
8
0
100
AcDbCircle
10
-94.99998971085175
20
-84.342557243211445
30
0
40
1.7000000000000173
210
-0
220
0
230
1
0
ARC
5
132
100
AcDbEntity
8
0
100
AcDbCircle
10
-94.99998971085175
20
-84.342557243211445
30
0
40
3.5000000000000142
210
0
220
0
230
1
100
AcDbArc
50
180
51
360
0
ARC
5
133
100
AcDbEntity
8
0
100
AcDbCircle
10
-88.999989710856582
20
-84.342562651384
30
0
40
2.4999999999999827
210
0
220
0
230
1
100
AcDbArc
50
90.000000823723965
51
180
0
ARC
5
134
100
AcDbEntity
8
0
100
AcDbCircle
10
-100.99998971085172
20
-84.342557232598438
30
0
40
2.4999999999999645
210
-0
220
0
230
1
100
AcDbArc
50
0
51
90.000000000000981
0
LINE
5
135
100
AcDbEntity
8
0
100
AcDbLine
10
-134.99998974116812
20
-81.842557438759229
30
0
11
134.99999784960889
21
-81.842555801665867
31
0
0
LINE
5
136
100
AcDbEntity
8
0
100
AcDbLine
10
-139.99998971085174
20
293.18452597152509
30
0
11
-139.99998971085174
21
-76.842557438759229
31
0
0
ARC
5
137
100
AcDbEntity
8
0
100
AcDbCircle
10
100.99999664723876
20
300.59999311342835
30
0
40
2.5000000000000355
210
0
220
0
230
1
100
AcDbArc
50
180
51
269.99999910300517
0
ARC
5
138
100
AcDbEntity
8
0
100
AcDbCircle
10
94.999996647238717
20
300.59998771364326
30
0
40
3.5000000000000142
210
0
220
-0
230
1
100
AcDbArc
50
0
51
180
0
ARC
5
139
100
AcDbEntity
8
0
100
AcDbCircle
10
88.999996647238731
20
300.5999877136432
30
0
40
2.4999999999999645
210
0
220
0
230
1
100
AcDbArc
50
-90.000000000000654
51
0
0
ARC
5
140
100
AcDbEntity
8
0
100
AcDbCircle
10
142.49999664723876
20
108.09999311342835
30
0
40
3.5000000000000142
210
-0
220
0
230
1
100
AcDbArc
50
-90
51
90
0
CIRCLE
5
141
100
AcDbEntity
8
0
100
AcDbCircle
10
94.999996647238746
20
-84.342557469066151
30
0
40
1.7000000000000173
210
-0
220
0
230
1
0
ARC
5
142
100
AcDbEntity
8
0
100
AcDbCircle
10
142.50000204702386
20
102.09999311343077
30
0
40
2.5
210
0
220
-0
230
1
100
AcDbArc
50
90
51
179.99999914622637
0
CIRCLE
5
143
100
AcDbEntity
8
0
100
AcDbCircle
10
142.49999124745364
20
-36.842557469066151
30
0
40
1.7000000000000171
210
-0
220
0
230
1
0
CIRCLE
5
144
100
AcDbEntity
8
0
100
AcDbCircle
10
142.49999948957796
20
253.09999311342835
30
0
40
1.7000000000000171
210
-0
220
0
230
1
0
ARC
5
145
100
AcDbEntity
8
0
100
AcDbCircle
10
142.49999124745364
20
-36.842557469066151
30
0
40
3.5000000000000142
210
-0
220
0
230
1
100
AcDbArc
50
-90
51
90
0
ARC
5
146
100
AcDbEntity
8
0
100
AcDbCircle
10
88.999996647238703
20
-84.342562868851303
30
0
40
2.5000000000000355
210
0
220
0
230
1
100
AcDbArc
50
0
51
89.999999103005166
0
ARC
5
147
100
AcDbEntity
8
0
100
AcDbCircle
10
94.999996647238746
20
-84.342557469066151
30
0
40
3.5000000000000142
210
0
220
0
230
1
100
AcDbArc
50
-180
51
0
0
ARC
5
148
100
AcDbEntity
8
0
100
AcDbCircle
10
100.99999664723873
20
-84.342557469066151
30
0
40
2.5
210
-0
220
0
230
1
100
AcDbArc
50
89.999999999999346
51
180
0
ARC
5
149
100
AcDbEntity
8
0
100
AcDbCircle
10
142.49999124745361
20
-30.842557469066207
30
0
40
2.4999999999999645
210
0
220
0
230
1
100
AcDbArc
50
180
51
270.00000000000068
0
CIRCLE
5
150
100
AcDbEntity
8
0
100
AcDbCircle
10
142.49999664723876
20
108.09999311342835
30
0
40
1.7000000000000171
210
-0
220
0
230
1
0
ARC
5
151
100
AcDbEntity
8
0
100
AcDbCircle
10
142.4999966472387
20
114.09999311342833
30
0
40
2.4999999999999645
210
0
220
0
230
1
100
AcDbArc
50
180
51
270.00000000000131
0
ARC
5
152
100
AcDbEntity
8
0
100
AcDbCircle
10
142.49999948957796
20
253.09999311342835
30
0
40
3.5000000000000142
210
-0
220
0
230
1
100
AcDbArc
50
-90
51
90
0
ARC
5
153
100
AcDbEntity
8
0
100
AcDbCircle
10
142.50000488936308
20
247.09999311343083
30
0
40
2.5
210
0
220
-0
230
1
100
AcDbArc
50
90
51
179.99999914622637
0
ARC
5
154
100
AcDbEntity
8
0
100
AcDbCircle
10
142.49999948957793
20
259.09999311342835
30
0
40
2.4999999999999645
210
0
220
0
230
1
100
AcDbArc
50
180
51
270.00000000000068
0
CIRCLE
5
155
100
AcDbEntity
8
0
100
AcDbCircle
10
94.999996647238717
20
300.59998771364326
30
0
40
1.7000000000000173
210
0
220
0
230
1
0
ARC
5
156
100
AcDbEntity
8
0
100
AcDbCircle
10
142.49999664723876
20
-42.842557469066236
30
0
40
2.5000000000000711
210
0
220
-0
230
1
100
AcDbArc
50
90
51
179.99999914622637
0
LINE
5
157
100
AcDbEntity
8
0
100
AcDbLine
10
-135.00068824802139
20
298.10000008924152
30
0
11
-135.00898021877373
21
298.10000008924351
31
0
0
LINE
5
158
100
AcDbEntity
8
0
100
AcDbLine
10
-135.00898021877373
20
298.10000008924351
30
0
11
134.76376221865937
21
298.10000008924607
31
0
0
LINE
5
159
100
AcDbEntity
8
0
100
AcDbLine
10
140.00000425417792
20
293.18378160664429
30
0
11
139.99998931819894
21
-76.842567516831778
31
0
0
LINE
5
160
100
AcDbEntity
8
0
100
AcDbLine
10
-139.99998971085174
20
293.18452597152509
30
0
11
-139.99998971085171
21
297.10000022688405
31
0
0
LINE
5
161
100
AcDbEntity
8
0
100
AcDbLine
10
-135.00068824802139
20
298.10000008924152
30
0
11
-138.99998967643506
21
298.10000022688405
31
0
0
ARC
5
162
100
AcDbEntity
8
0
100
AcDbCircle
10
-138.99998971085171
20
297.10000022688411
30
0
40
0.99999999999997924
210
0
220
-0
230
1
100
AcDbArc
50
89.999998028071573
51
180
0
LINE
5
163
100
AcDbEntity
8
0
100
AcDbLine
10
-139.99998971085174
20
-76.842557438759229
30
0
11
-139.99998971085174
21
-80.842557438759229
31
0
0
LINE
5
164
100
AcDbEntity
8
0
100
AcDbLine
10
-134.99998974116812
20
-81.842557438759229
30
0
11
-138.99998971085176
21
-81.842557438759229
31
0
0
ARC
5
165
100
AcDbEntity
8
0
100
AcDbCircle
10
-138.99998971085176
20
-80.842557438759229
30
0
40
0.99999999999999645
210
0
220
0
230
1
100
AcDbArc
50
180
51
270
0
LINE
5
166
100
AcDbEntity
8
0
100
AcDbLine
10
134.99999784960889
20
-81.842555801665867
30
0
11
138.99998883185282
21
-81.842556190742769
31
0
0
LINE
5
167
100
AcDbEntity
8
0
100
AcDbLine
10
139.99998931819894
20
-76.842567516831778
30
0
11
139.99998892912225
21
-80.842556288012219
31
0
0
ARC
5
168
100
AcDbEntity
8
0
100
AcDbCircle
10
138.99998892912225
20
-80.842556190742769
30
0
40
1.0000000000000011
210
0
220
0
230
1
100
AcDbArc
50
269.99999442687187
51
359.99999446691442
0
LINE
5
169
100
AcDbEntity
8
0
100
AcDbLine
10
134.76376221865937
20
298.10000008924607
30
0
11
139.00000425417784
21
298.10000008924612
31
0
0
LINE
5
170
100
AcDbEntity
8
0
100
AcDbLine
10
140.00000425417792
20
293.18378160664429
30
0
11
140.0000042541779
21
297.10000008924618
31
0
0
ARC
5
171
100
AcDbEntity
8
0
100
AcDbCircle
10
139.00000425417778
20
297.10000008924607
30
0
40
1.0000000000000853
210
0
220
-0
230
1
100
AcDbArc
50
0
51
89.999999999996746
0
ELLIPSE
5
172
100
AcDbEntity
8
0
100
AcDbEllipse
10
-0.050082952042505013
20
283.17716567177712
30
0
11
-1.3707944436595192e-13
21
3.4237549613200491
31
0.0
40
0.94925018046504794
41
0
42
6.2831853071795862
0
ENDSEC
0
SECTION
2
OBJECTS
0
DICTIONARY
5
C
100
AcDbDictionary
3
ACAD_GROUP
350
D
3
ACAD_MLINESTYLE
350
17
0
DICTIONARY
5
D
100
AcDbDictionary
0
DICTIONARY
5
1A
330
C
100
AcDbDictionary
0
DICTIONARY
5
17
100
AcDbDictionary
0
ENDSEC
0
EOF
