0
SECTION
2
HEADER
9
$INSUNITS
70
4
9
$ACADVER
1
AC1014
9
$HANDSEED
5
FFFF
0
ENDSEC
0
SECTION
2
TABLES
0
TABLE
2
VPORT
5
8
100
AcDbSymbolTable
0
ENDTAB
0
TABLE
2
LTYPE
5
5
100
AcDbSymbolTable
0
LTYPE
5
14
100
AcDbSymbolTableRecord
100
AcDbLinetypeTableRecord
2
BYBLOCK
70
0
0
LTYPE
5
15
100
AcDbSymbolTableRecord
100
AcDbLinetypeTableRecord
2
BYLAYER
70
0
0
ENDTAB
0
TABLE
2
LAYER
5
2
100
AcDbSymbolTable
70
2
0
LAYER
5
50
100
AcDbSymbolTableRecord
100
AcDbLayerTableRecord
2
0
70
0
6
CONTINUOUS
0
ENDTAB
0
TABLE
2
STYLE
5
3
100
AcDbSymbolTable
70
1
0
STYLE
5
11
100
AcDbSymbolTableRecord
100
AcDbTextStyleTableRecord
2
STANDARD
70
0
0
ENDTAB
0
TABLE
2
VIEW
5
6
100
AcDbSymbolTable
70
0
0
ENDTAB
0
TABLE
2
UCS
5
7
100
AcDbSymbolTable
70
0
0
ENDTAB
0
TABLE
2
APPID
5
9
100
AcDbSymbolTable
70
2
0
APPID
5
12
100
AcDbSymbolTableRecord
100
AcDbRegAppTableRecord
2
ACAD
70
0
0
ENDTAB
0
TABLE
2
DIMSTYLE
5
A
100
AcDbSymbolTable
70
1
0
ENDTAB
0
TABLE
2
BLOCK_RECORD
5
1
100
AcDbSymbolTable
70
1
0
BLOCK_RECORD
5
1F
100
AcDbSymbolTableRecord
100
AcDbBlockTableRecord
2
*MODEL_SPACE
0
BLOCK_RECORD
5
1B
100
AcDbSymbolTableRecord
100
AcDbBlockTableRecord
2
*PAPER_SPACE
0
ENDTAB
0
ENDSEC
0
SECTION
2
BLOCKS
0
BLOCK
5
20
100
AcDbEntity
100
AcDbBlockBegin
2
*MODEL_SPACE
0
ENDBLK
5
21
100
AcDbEntity
100
AcDbBlockEnd
0
BLOCK
5
1C
100
AcDbEntity
100
AcDbBlockBegin
2
*PAPER_SPACE
0
ENDBLK
5
1D
100
AcDbEntity
100
AcDbBlockEnd
0
ENDSEC
0
SECTION
2
ENTITIES
0
ARC
5
100
100
AcDbEntity
8
0
100
AcDbCircle
10
138.99998909587956
20
-80.842555801665867
30
0
40
0.99999999999999645
210
0
220
0
230
1
100
AcDbArc
50
270
51
359.99999680547148
0
LINE
5
101
100
AcDbEntity
8
0
100
AcDbLine
10
139.99998909587956
20
-80.842555857245884
30
0
11
139.99999064892671
21
-52.900006701800677
31
0
0
ARC
5
102
100
AcDbEntity
8
0
100
AcDbCircle
10
142.49999900535141
20
-52.900006301991063
30
0
40
2.5000083564247433
210
0
220
0
230
1
100
AcDbArc
50
90.001324341420769
51
180.00000915570234
0
ARC
5
103
100
AcDbEntity
8
0
100
AcDbCircle
10
142.49994165456044
20
-46.899997945874929
30
0
40
3.5000000003592469
210
0
220
0
230
1
100
AcDbArc
50
-90.000007116098345
51
89.999992883901214
0
ARC
5
104
100
AcDbEntity
8
0
100
AcDbCircle
10
142.49999131512425
20
-40.899997946234848
30
0
40
2.4999999998772036
210
0
220
0
230
1
100
AcDbArc
50
180.00129367049854
51
269.9988718262527
0
LINE
5
105
100
AcDbEntity
8
0
100
AcDbLine
10
139.9999913158843
20
-40.900054393267169
30
0
11
139.99999926382139
21
102.09987074403678
31
0
0
ARC
5
106
100
AcDbEntity
8
0
100
AcDbCircle
10
142.49999926099565
20
102.09999311329938
30
0
40
2.5000000001690967
210
0
220
0
230
1
100
AcDbArc
50
90.000051716830555
51
180.00280449685138
0
ARC
5
107
100
AcDbEntity
8
0
100
AcDbCircle
10
142.49999697084607
20
108.09999311342835
30
0
40
3.4999999999608988
210
0
220
0
230
1
100
AcDbArc
50
-89.999999450334556
51
90.000000549665458
0
ARC
5
108
100
AcDbEntity
8
0
100
AcDbCircle
10
142.49999992764765
20
114.09999311338791
30
0
40
2.4999999999999538
210
0
220
0
230
1
100
AcDbArc
50
180.00294508226185
51
269.99993146556784
0
LINE
5
109
100
AcDbEntity
8
0
100
AcDbLine
10
139.99999993095031
20
114.099864609929
30
0
11
140.00000787872796
21
257.09999325238709
31
0
0
ARC
5
110
100
AcDbEntity
8
0
100
AcDbCircle
10
142.50000787872975
20
257.09999311343711
30
0
40
2.5000000000018168
210
0
220
0
230
1
100
AcDbArc
50
90.000257406813134
51
179.99999680547154
0
ARC
5
111
100
AcDbEntity
8
0
100
AcDbCircle
10
142.49999664723873
20
263.09999311342835
30
0
40
3.5000000000146869
210
0
220
0
230
1
100
AcDbArc
50
-90
51
90
0
ARC
5
112
100
AcDbEntity
8
0
100
AcDbCircle
10
142.4999966472387
20
269.09999311342835
30
0
40
2.4999999999999645
210
0
220
0
230
1
100
AcDbArc
50
180
51
270.00000000000068
0
LINE
5
113
100
AcDbEntity
8
0
100
AcDbLine
10
139.99999664723873
20
269.09999311342835
30
0
11
139.99999664723873
21
297.09999311342835
31
0
0
ARC
5
114
100
AcDbEntity
8
0
100
AcDbCircle
10
138.99999664723873
20
297.09999311342835
30
0
40
0.99999999999999645
210
0
220
0
230
1
100
AcDbArc
50
0
51
90
0
LINE
5
115
100
AcDbEntity
8
0
100
AcDbLine
10
138.99999664723873
20
298.09999311342835
30
0
11
110.99999660809742
21
298.09999311342835
31
0
0
ARC
5
116
100
AcDbEntity
8
0
100
AcDbCircle
10
110.99999664723624
20
300.59999311342835
30
0
40
2.5000000000000049
210
0
220
0
230
1
100
AcDbArc
50
180.00012375301009
51
269.9999991030042
0
ARC
5
117
100
AcDbEntity
8
0
100
AcDbCircle
10
104.99999664723873
20
300.59998771364326
30
0
40
3.500000000003336
210
0
220
0
230
1
100
AcDbArc
50
0
51
180
0
ARC
5
118
100
AcDbEntity
8
0
100
AcDbCircle
10
98.999996647238788
20
300.5999877136432
30
0
40
2.5
210
0
220
0
230
1
100
AcDbArc
50
-90
51
0
0
LINE
5
119
100
AcDbEntity
8
0
100
AcDbLine
10
98.999996647238788
20
298.0999877136432
30
0
11
14.999999664723891
21
298.09998988389174
31
0
0
LINE
5
120
100
AcDbEntity
8
0
100
AcDbLine
10
14.999999664723891
20
298.09998988389174
30
0
11
-88.999989710851622
21
298.09998719691754
31
0
0
ARC
5
121
100
AcDbEntity
8
0
100
AcDbCircle
10
-88.999989710851764
20
300.5999877136432
30
0
40
2.4999999999999645
210
0
220
0
230
1
100
AcDbArc
50
180
51
270.00000000000324
0
ARC
5
122
100
AcDbEntity
8
0
100
AcDbCircle
10
-94.99998971085175
20
300.59998771364326
30
0
40
3.5000000000000142
210
0
220
0
230
1
100
AcDbArc
50
0
51
179.99991160659152
0
ARC
5
123
100
AcDbEntity
8
0
100
AcDbCircle
10
-100.99998971085179
20
300.59999311342835
30
0
40
2.5
210
0
220
0
230
1
100
AcDbArc
50
-89.999999103005521
51
0
0
LINE
5
124
100
AcDbEntity
8
0
100
AcDbLine
10
-100.99998967171302
20
298.09999311342835
30
0
11
-109.99999731779079
21
298.09998665435512
31
0
0
LINE
5
125
100
AcDbEntity
8
0
100
AcDbLine
10
-109.99999731779079
20
298.09998665435512
30
0
11
-139.00001082806216
21
298.09999150160735
31
0
0
ARC
5
126
100
AcDbEntity
8
0
100
AcDbCircle
10
-139.00001077248217
20
297.09999150160735
30
0
40
1.0000000000000158
210
0
220
0
230
1
100
AcDbArc
50
90.00000318449878
51
180.00000319452846
0
LINE
5
127
100
AcDbEntity
8
0
100
AcDbLine
10
-140.00001077248217
20
297.09999144602733
30
0
11
-140.00001055483548
21
293.18407485475603
31
0
0
LINE
5
128
100
AcDbEntity
8
0
100
AcDbLine
10
-139.99999731779096
20
293.18407485475677
30
0
11
-139.99999731779096
21
265.54948118881123
31
0
0
LINE
5
129
100
AcDbEntity
8
0
100
AcDbLine
10
-140.00000901890456
20
265.54948118881066
30
0
11
-140.00000865994318
21
259.09101906743655
31
0
0
ARC
5
130
100
AcDbEntity
8
0
100
AcDbCircle
10
-142.49999255319096
20
259.09999311342835
30
0
40
2.4999999999999645
210
0
220
0
230
1
100
AcDbArc
50
269.99999999999932
51
359.79432957411404
0
ARC
5
131
100
AcDbEntity
8
0
100
AcDbCircle
10
-142.49999255319099
20
253.09999311342835
30
0
40
3.5000000000000142
210
0
220
-0
230
1
100
AcDbArc
50
90
51
269.99991160431489
0
ARC
5
132
100
AcDbEntity
8
0
100
AcDbCircle
10
-142.49999795297612
20
247.0999931134308
30
0
40
2.499999999999996
210
0
220
-0
230
1
100
AcDbArc
50
0.093756280098048969
51
90
0
LINE
5
133
100
AcDbEntity
8
0
100
AcDbLine
10
-140.00000130005068
20
247.10408400106044
30
0
11
-140.00000004530983
21
104.09584301320695
31
0
0
ARC
5
134
100
AcDbEntity
8
0
100
AcDbCircle
10
-142.49998971085171
20
104.09999311342833
30
0
40
2.4999999999999645
210
0
220
0
230
1
100
AcDbArc
50
269.99999999999932
51
359.90488640329289
0
ARC
5
135
100
AcDbEntity
8
0
100
AcDbCircle
10
-142.49998971085174
20
98.099993113428354
30
0
40
3.5000000000000142
210
0
220
-0
230
1
100
AcDbArc
50
90
51
269.99991160431489
0
ARC
5
136
100
AcDbEntity
8
0
100
AcDbCircle
10
-142.49999511063686
20
92.099993113428297
30
0
40
2.5
210
0
220
-0
230
1
100
AcDbArc
50
8.5377364625159387e-07
51
90
0
LINE
5
137
100
AcDbEntity
8
0
100
AcDbLine
10
-139.99999511063686
20
92.099993152567095
30
0
11
-139.99999254543226
21
-30.842557469066385
31
0
0
ARC
5
138
100
AcDbEntity
8
0
100
AcDbCircle
10
-142.49998431106658
20
-30.842557469066172
30
0
40
2.4999999999999645
210
0
220
0
230
1
100
AcDbArc
50
269.99999999999869
51
360
0
ARC
5
139
100
AcDbEntity
8
0
100
AcDbCircle
10
-142.49998431106664
20
-36.842557469066151
30
0
40
3.5000000000000142
210
0
220
-0
230
1
100
AcDbArc
50
90
51
269.99991160431534
0
ARC
5
140
100
AcDbEntity
8
0
100
AcDbCircle
10
-142.49998971085174
20
-42.8425574690662
30
0
40
2.5
210
0
220
-0
230
1
100
AcDbArc
50
8.5377364625159387e-07
51
90
0
LINE
5
141
100
AcDbEntity
8
0
100
AcDbLine
10
-139.99998971085174
20
-42.84255742992741
30
0
11
-139.99998976643178
21
-80.842557469066151
31
0
0
ARC
5
142
100
AcDbEntity
8
0
100
AcDbCircle
10
-138.99998976643178
20
-80.842557413486148
30
0
40
0.999999999999998
210
0
220
0
230
1
100
AcDbArc
50
180.00000319452846
51
270.00000318449878
0
LINE
5
143
100
AcDbEntity
8
0
100
AcDbLine
10
-138.99998971085179
20
-81.842557413486148
30
0
11
-109.99998971085178
21
-81.842555801665867
31
0
0
LINE
5
144
100
AcDbEntity
8
0
100
AcDbLine
10
-109.99998971085178
20
-81.842555801665867
30
0
11
-100.99998971085176
21
-81.842555801665853
31
0
0
ARC
5
145
100
AcDbEntity
8
0
100
AcDbCircle
10
-100.99998971085172
20
-84.342557469066122
30
0
40
2.4999999999999645
210
0
220
0
230
1
100
AcDbArc
50
0
51
90.000000000000981
0
ARC
5
146
100
AcDbEntity
8
0
100
AcDbCircle
10
-94.99998971085175
20
-84.342557469066151
30
0
40
3.5000000000000142
210
0
220
0
230
1
100
AcDbArc
50
180
51
359.99991160659158
0
ARC
5
147
100
AcDbEntity
8
0
100
AcDbCircle
10
-88.999989710851693
20
-84.342562868851275
30
0
40
2.5
210
0
220
0
230
1
100
AcDbArc
50
90.000000896992546
51
180
0
LINE
5
148
100
AcDbEntity
8
0
100
AcDbLine
10
-88.999989749990377
20
-81.842562868851275
30
0
11
14.999999664723855
21
-81.842555801665853
31
0
0
LINE
5
149
100
AcDbEntity
8
0
100
AcDbLine
10
14.999999664723855
20
-81.842555801665853
30
0
11
98.999996686379902
21
-81.842561201450991
31
0
0
ARC
5
150
100
AcDbEntity
8
0
100
AcDbCircle
10
98.999996647241133
20
-84.342561201450991
30
0
40
2.5000000000000049
210
0
220
-0
230
1
100
AcDbArc
50
0.00012375301012139005
51
89.999999103005493
0
ARC
5
151
100
AcDbEntity
8
0
100
AcDbCircle
10
104.99999664723873
20
-84.342555801665867
30
0
40
3.5000000000034248
210
0
220
0
230
1
100
AcDbArc
50
-180
51
0
0
ARC
5
152
100
AcDbEntity
8
0
100
AcDbCircle
10
110.99999664723873
20
-84.342555801665839
30
0
40
2.4999999999999645
210
0
220
-0
230
1
100
AcDbArc
50
89.999999999999346
51
180
0
LINE
5
153
100
AcDbEntity
8
0
100
AcDbLine
10
110.99999664723876
20
-81.842555801665867
30
0
11
138.99998909587956
21
-81.842555801665867
31
0
0
CIRCLE
5
154
100
AcDbEntity
8
0
100
AcDbCircle
10
142.49994165456044
20
-46.899997945874929
30
0
40
1.7000000000000171
210
0
220
-0
230
1
0
CIRCLE
5
155
100
AcDbEntity
8
0
100
AcDbCircle
10
104.99999664723873
20
-84.342555801665867
30
0
40
1.7000000000000171
210
0
220
0
230
1
0
CIRCLE
5
156
100
AcDbEntity
8
0
100
AcDbCircle
10
94.99998971085175
20
-84.342557469066151
30
0
40
1.7000000000000171
210
0
220
0
230
-1
0
CIRCLE
5
157
100
AcDbEntity
8
0
100
AcDbCircle
10
142.49998431106664
20
-36.842557469066151
30
0
40
1.7000000000000171
210
0
220
0
230
-1
0
CIRCLE
5
158
100
AcDbEntity
8
0
100
AcDbCircle
10
104.99999664723873
20
300.59998771364326
30
0
40
1.7000000000000171
210
0
220
0
230
1
0
CIRCLE
5
159
100
AcDbEntity
8
0
100
AcDbCircle
10
142.49999664723873
20
263.09999311342835
30
0
40
1.7000000000000171
210
0
220
-0
230
1
0
CIRCLE
5
160
100
AcDbEntity
8
0
100
AcDbCircle
10
142.49999697084607
20
108.09999311342835
30
0
40
1.7000000000000171
210
0
220
-0
230
1
0
CIRCLE
5
161
100
AcDbEntity
8
0
100
AcDbCircle
10
142.49998971085174
20
98.099993113428354
30
0
40
1.7000000000000171
210
0
220
0
230
-1
0
CIRCLE
5
162
100
AcDbEntity
8
0
100
AcDbCircle
10
94.99998971085175
20
300.59998771364326
30
0
40
1.7000000000000171
210
0
220
0
230
-1
0
CIRCLE
5
163
100
AcDbEntity
8
0
100
AcDbCircle
10
142.49999255319099
20
253.09999311342835
30
0
40
1.7000000000000171
210
0
220
0
230
-1
0
ARC
5
164
100
AcDbEntity
8
0
100
AcDbCircle
10
138.99998909587958
20
-80.842555801665895
30
0
40
0.99999999999997868
210
0
220
0
230
1
100
AcDbArc
50
269.99999999999835
51
359.99999680547148
0
LINE
5
165
100
AcDbEntity
8
0
100
AcDbLine
10
139.99998909587956
20
-80.842555857245884
30
0
11
139.99999064892671
21
-52.900006701800677
31
0
0
ARC
5
166
100
AcDbEntity
8
0
100
AcDbCircle
10
142.49999900535141
20
-52.900006301991084
30
0
40
2.500008356424761
210
0
220
0
230
1
100
AcDbArc
50
90.001324341420769
51
180.00000915570234
0
ARC
5
167
100
AcDbEntity
8
0
100
AcDbCircle
10
142.49994165456044
20
-46.899997945874922
30
0
40
3.5000000003592562
210
0
220
0
230
1
100
AcDbArc
50
-90.000007116098345
51
89.999992883901214
0
ARC
5
168
100
AcDbEntity
8
0
100
AcDbCircle
10
142.49999131512425
20
-40.899997946234862
30
0
40
2.4999999998772036
210
0
220
0
230
1
100
AcDbArc
50
180.00129367049854
51
269.9988718262527
0
LINE
5
169
100
AcDbEntity
8
0
100
AcDbLine
10
139.9999913158843
20
-40.900054393267169
30
0
11
139.99999926382139
21
102.09987074403678
31
0
0
ARC
5
170
100
AcDbEntity
8
0
100
AcDbCircle
10
142.49999926099568
20
102.09999311329936
30
0
40
2.5000000001691145
210
0
220
0
230
1
100
AcDbArc
50
90.000051716831194
51
180.00280449685138
0
ARC
5
171
100
AcDbEntity
8
0
100
AcDbCircle
10
142.49999697084607
20
108.09999311342835
30
0
40
3.4999999999608988
210
-0
220
0
230
1
100
AcDbArc
50
-89.999999450334556
51
90.000000549665458
0
ARC
5
172
100
AcDbEntity
8
0
100
AcDbCircle
10
142.49999992764762
20
114.09999311338787
30
0
40
2.4999999999999361
210
0
220
0
230
1
100
AcDbArc
50
180.00294508226185
51
269.99993146556847
0
LINE
5
173
100
AcDbEntity
8
0
100
AcDbLine
10
139.99999993095031
20
114.099864609929
30
0
11
140.00000787872796
21
257.09999325238709
31
0
0
ARC
5
174
100
AcDbEntity
8
0
100
AcDbCircle
10
142.50000787872983
20
257.09999311343705
30
0
40
2.5000000000018523
210
0
220
0
230
1
100
AcDbArc
50
90.000257406815081
51
179.99999680547154
0
ARC
5
175
100
AcDbEntity
8
0
100
AcDbCircle
10
142.49999664723873
20
263.09999311342835
30
0
40
3.5000000000146869
210
0
220
0
230
1
100
AcDbArc
50
-90
51
90
0
ARC
5
176
100
AcDbEntity
8
0
100
AcDbCircle
10
142.4999966472387
20
269.09999311342835
30
0
40
2.4999999999999822
210
0
220
0
230
1
100
AcDbArc
50
180
51
270.00000000000068
0
LINE
5
177
100
AcDbEntity
8
0
100
AcDbLine
10
139.99999664723873
20
269.09999311342835
30
0
11
139.99999664723873
21
297.09999311342835
31
0
0
ARC
5
178
100
AcDbEntity
8
0
100
AcDbCircle
10
138.99999664723873
20
297.09999311342835
30
0
40
1.0000000000000142
210
0
220
0
230
1
100
AcDbArc
50
0
51
90
0
LINE
5
179
100
AcDbEntity
8
0
100
AcDbLine
10
138.99999664723873
20
298.09999311342835
30
0
11
110.99999660809742
21
298.09999311342835
31
0
0
ARC
5
180
100
AcDbEntity
8
0
100
AcDbCircle
10
110.99999664723624
20
300.59999311342835
30
0
40
2.5000000000000049
210
0
220
0
230
1
100
AcDbArc
50
180.00012375301009
51
269.9999991030042
0
ARC
5
181
100
AcDbEntity
8
0
100
AcDbCircle
10
104.99999664723873
20
300.59998771364326
30
0
40
3.500000000003336
210
0
220
0
230
1
100
AcDbArc
50
0
51
180
0
ARC
5
182
100
AcDbEntity
8
0
100
AcDbCircle
10
98.999996647238788
20
300.5999877136432
30
0
40
2.5
210
0
220
0
230
1
100
AcDbArc
50
-90
51
0
0
LINE
5
183
100
AcDbEntity
8
0
100
AcDbLine
10
98.999996647238788
20
298.0999877136432
30
0
11
14.999999664723891
21
298.09998988389174
31
0
0
LINE
5
184
100
AcDbEntity
8
0
100
AcDbLine
10
14.999999664723891
20
298.09998988389174
30
0
11
-88.999989710851622
21
298.09998719691754
31
0
0
ARC
5
185
100
AcDbEntity
8
0
100
AcDbCircle
10
-88.999989710851764
20
300.5999877136432
30
0
40
2.4999999999999645
210
0
220
0
230
1
100
AcDbArc
50
180
51
270.00000000000324
0
ARC
5
186
100
AcDbEntity
8
0
100
AcDbCircle
10
-94.99998971085175
20
300.59998771364326
30
0
40
3.5000000000000142
210
0
220
0
230
1
100
AcDbArc
50
0
51
179.99991160659152
0
ARC
5
187
100
AcDbEntity
8
0
100
AcDbCircle
10
-100.99998971085179
20
300.59999311342835
30
0
40
2.5
210
-0
220
0
230
1
100
AcDbArc
50
-89.999999103005521
51
0
0
LINE
5
188
100
AcDbEntity
8
0
100
AcDbLine
10
-100.99998967171302
20
298.09999311342835
30
0
11
-109.99999731779079
21
298.09998665435512
31
0
0
LINE
5
189
100
AcDbEntity
8
0
100
AcDbLine
10
-109.99999731779079
20
298.09998665435512
30
0
11
-139.00001082806216
21
298.09999150160735
31
0
0
ARC
5
190
100
AcDbEntity
8
0
100
AcDbCircle
10
-139.00001077248214
20
297.09999150160735
30
0
40
1.0000000000000158
210
0
220
0
230
1
100
AcDbArc
50
90.0000031845004
51
180.00000319452846
0
LINE
5
191
100
AcDbEntity
8
0
100
AcDbLine
10
-140.00001077248214
20
297.09999144602733
30
0
11
-140.00001055483548
21
293.18407485475603
31
0
0
LINE
5
192
100
AcDbEntity
8
0
100
AcDbLine
10
-139.99999731779096
20
293.18407485475677
30
0
11
-139.99999731779096
21
265.54948118881123
31
0
0
LINE
5
193
100
AcDbEntity
8
0
100
AcDbLine
10
-140.00000901890456
20
265.54948118881066
30
0
11
-140.00000865994318
21
259.09101906743655
31
0
0
ARC
5
194
100
AcDbEntity
8
0
100
AcDbCircle
10
-142.49999255319096
20
259.09999311342835
30
0
40
2.4999999999999645
210
0
220
0
230
1
100
AcDbArc
50
269.99999999999932
51
359.79432957411404
0
ARC
5
195
100
AcDbEntity
8
0
100
AcDbCircle
10
-142.49999255319099
20
253.09999311342835
30
0
40
3.5000000000000142
210
0
220
-0
230
1
100
AcDbArc
50
90
51
269.99991160431489
0
ARC
5
196
100
AcDbEntity
8
0
100
AcDbCircle
10
-142.49999795297612
20
247.0999931134308
30
0
40
2.499999999999996
210
0
220
-0
230
1
100
AcDbArc
50
0.093756280098048969
51
90
0
LINE
5
197
100
AcDbEntity
8
0
100
AcDbLine
10
-140.00000130005068
20
247.10408400106044
30
0
11
-140.00000004530983
21
104.09584301320695
31
0
0
ARC
5
198
100
AcDbEntity
8
0
100
AcDbCircle
10
-142.49998971085171
20
104.09999311342833
30
0
40
2.4999999999999645
210
0
220
0
230
1
100
AcDbArc
50
269.99999999999932
51
359.90488640329289
0
ARC
5
199
100
AcDbEntity
8
0
100
AcDbCircle
10
-142.49998971085174
20
98.099993113428354
30
0
40
3.5000000000000142
210
0
220
-0
230
1
100
AcDbArc
50
90
51
269.99991160431489
0
ARC
5
200
100
AcDbEntity
8
0
100
AcDbCircle
10
-142.49999511063686
20
92.099993113428297
30
0
40
2.5
210
0
220
-0
230
1
100
AcDbArc
50
8.5377364625159387e-07
51
90
0
LINE
5
201
100
AcDbEntity
8
0
100
AcDbLine
10
-139.99999511063686
20
92.099993152567095
30
0
11
-139.99999254543226
21
-30.842557469066385
31
0
0
ARC
5
202
100
AcDbEntity
8
0
100
AcDbCircle
10
-142.49998431106658
20
-30.842557469066172
30
0
40
2.4999999999999645
210
0
220
0
230
1
100
AcDbArc
50
269.99999999999869
51
360
0
ARC
5
203
100
AcDbEntity
8
0
100
AcDbCircle
10
-142.49998431106664
20
-36.842557469066151
30
0
40
3.5000000000000142
210
0
220
-0
230
1
100
AcDbArc
50
90
51
269.99991160431534
0
ARC
5
204
100
AcDbEntity
8
0
100
AcDbCircle
10
-142.49998971085174
20
-42.8425574690662
30
0
40
2.5
210
0
220
-0
230
1
100
AcDbArc
50
8.5377364625159387e-07
51
90
0
LINE
5
205
100
AcDbEntity
8
0
100
AcDbLine
10
-139.99998971085174
20
-42.84255742992741
30
0
11
-139.99998976643178
21
-80.842557469066151
31
0
0
ARC
5
206
100
AcDbEntity
8
0
100
AcDbCircle
10
-138.99998976643178
20
-80.842557413486134
30
0
40
1.0000000000000158
210
0
220
0
230
1
100
AcDbArc
50
180.00000319452846
51
270.00000318449878
0
LINE
5
207
100
AcDbEntity
8
0
100
AcDbLine
10
-138.99998971085179
20
-81.842557413486148
30
0
11
-109.99998971085178
21
-81.842555801665867
31
0
0
LINE
5
208
100
AcDbEntity
8
0
100
AcDbLine
10
-109.99998971085178
20
-81.842555801665867
30
0
11
-100.99998971085176
21
-81.842555801665853
31
0
0
ARC
5
209
100
AcDbEntity
8
0
100
AcDbCircle
10
-100.99998971085172
20
-84.342557469066122
30
0
40
2.4999999999999645
210
-0
220
0
230
1
100
AcDbArc
50
0
51
90.000000000000981
0
ARC
5
210
100
AcDbEntity
8
0
100
AcDbCircle
10
-94.99998971085175
20
-84.342557469066151
30
0
40
3.5000000000000142
210
0
220
-0
230
1
100
AcDbArc
50
180
51
359.99991160659158
0
ARC
5
211
100
AcDbEntity
8
0
100
AcDbCircle
10
-88.999989710851693
20
-84.342562868851275
30
0
40
2.5
210
0
220
0
230
1
100
AcDbArc
50
90.000000896992546
51
180
0
LINE
5
212
100
AcDbEntity
8
0
100
AcDbLine
10
-88.999989749990377
20
-81.842562868851275
30
0
11
14.999999664723855
21
-81.842555801665853
31
0
0
LINE
5
213
100
AcDbEntity
8
0
100
AcDbLine
10
14.999999664723855
20
-81.842555801665853
30
0
11
98.999996686379902
21
-81.842561201450991
31
0
0
ARC
5
214
100
AcDbEntity
8
0
100
AcDbCircle
10
98.999996647241133
20
-84.342561201450991
30
0
40
2.5000000000000049
210
0
220
-0
230
1
100
AcDbArc
50
0.00012375301012139005
51
89.999999103005493
0
ARC
5
215
100
AcDbEntity
8
0
100
AcDbCircle
10
104.99999664723873
20
-84.342555801665895
30
0
40
3.5000000000034248
210
0
220
0
230
1
100
AcDbArc
50
180
51
360
0
ARC
5
216
100
AcDbEntity
8
0
100
AcDbCircle
10
110.9999966472387
20
-84.34255580166581
30
0
40
2.4999999999999467
210
0
220
-0
230
1
100
AcDbArc
50
89.999999999998693
51
180
0
LINE
5
217
100
AcDbEntity
8
0
100
AcDbLine
10
110.99999664723876
20
-81.842555801665867
30
0
11
138.99998909587956
21
-81.842555801665867
31
0
0
CIRCLE
5
218
100
AcDbEntity
8
0
100
AcDbCircle
10
142.49994165456044
20
-46.899997945874929
30
0
40
1.7000000000000171
210
0
220
0
230
1
0
CIRCLE
5
219
100
AcDbEntity
8
0
100
AcDbCircle
10
104.99999664723873
20
-84.342555801665867
30
0
40
1.7000000000000171
210
0
220
-0
230
1
0
CIRCLE
5
220
100
AcDbEntity
8
0
100
AcDbCircle
10
-94.99998971085175
20
-84.342557469066151
30
0
40
1.7000000000000171
210
0
220
0
230
1
0
CIRCLE
5
221
100
AcDbEntity
8
0
100
AcDbCircle
10
-142.49998431106664
20
-36.842557469066151
30
0
40
1.7000000000000171
210
0
220
-0
230
1
0
CIRCLE
5
222
100
AcDbEntity
8
0
100
AcDbCircle
10
104.99999664723873
20
300.59998771364326
30
0
40
1.7000000000000171
210
0
220
-0
230
1
0
CIRCLE
5
223
100
AcDbEntity
8
0
100
AcDbCircle
10
142.49999664723873
20
263.09999311342835
30
0
40
1.7000000000000171
210
0
220
0
230
1
0
CIRCLE
5
224
100
AcDbEntity
8
0
100
AcDbCircle
10
142.49999697084607
20
108.09999311342835
30
0
40
1.7000000000000171
210
0
220
0
230
1
0
CIRCLE
5
225
100
AcDbEntity
8
0
100
AcDbCircle
10
-142.49998971085174
20
98.099993113428354
30
0
40
1.7000000000000171
210
0
220
-0
230
1
0
CIRCLE
5
226
100
AcDbEntity
8
0
100
AcDbCircle
10
-94.99998971085175
20
300.59998771364326
30
0
40
1.7000000000000171
210
0
220
0
230
1
0
CIRCLE
5
227
100
AcDbEntity
8
0
100
AcDbCircle
10
-142.49999255319099
20
253.09999311342835
30
0
40
1.7000000000000171
210
0
220
-0
230
1
0
ENDSEC
0
SECTION
2
OBJECTS
0
DICTIONARY
5
C
100
AcDbDictionary
3
ACAD_GROUP
350
D
3
ACAD_MLINESTYLE
350
17
0
DICTIONARY
5
D
100
AcDbDictionary
0
DICTIONARY
5
1A
330
C
100
AcDbDictionary
0
DICTIONARY
5
17
100
AcDbDictionary
0
ENDSEC
0
EOF
