0
SECTION
2
HEADER
9
$INSUNITS
70
4
9
$ACADVER
1
AC1014
9
$HANDSEED
5
FFFF
0
ENDSEC
0
SECTION
2
TABLES
0
TABLE
2
VPORT
5
8
100
AcDbSymbolTable
0
ENDTAB
0
TABLE
2
LTYPE
5
5
100
AcDbSymbolTable
0
LTYPE
5
14
100
AcDbSymbolTableRecord
100
AcDbLinetypeTableRecord
2
BYBLOCK
70
0
0
LTYPE
5
15
100
AcDbSymbolTableRecord
100
AcDbLinetypeTableRecord
2
BYLAYER
70
0
0
ENDTAB
0
TABLE
2
LAYER
5
2
100
AcDbSymbolTable
70
2
0
LAYER
5
50
100
AcDbSymbolTableRecord
100
AcDbLayerTableRecord
2
0
70
0
6
CONTINUOUS
0
ENDTAB
0
TABLE
2
STYLE
5
3
100
AcDbSymbolTable
70
1
0
STYLE
5
11
100
AcDbSymbolTableRecord
100
AcDbTextStyleTableRecord
2
STANDARD
70
0
0
ENDTAB
0
TABLE
2
VIEW
5
6
100
AcDbSymbolTable
70
0
0
ENDTAB
0
TABLE
2
UCS
5
7
100
AcDbSymbolTable
70
0
0
ENDTAB
0
TABLE
2
APPID
5
9
100
AcDbSymbolTable
70
2
0
APPID
5
12
100
AcDbSymbolTableRecord
100
AcDbRegAppTableRecord
2
ACAD
70
0
0
ENDTAB
0
TABLE
2
DIMSTYLE
5
A
100
AcDbSymbolTable
70
1
0
ENDTAB
0
TABLE
2
BLOCK_RECORD
5
1
100
AcDbSymbolTable
70
1
0
BLOCK_RECORD
5
1F
100
AcDbSymbolTableRecord
100
AcDbBlockTableRecord
2
*MODEL_SPACE
0
BLOCK_RECORD
5
1B
100
AcDbSymbolTableRecord
100
AcDbBlockTableRecord
2
*PAPER_SPACE
0
ENDTAB
0
ENDSEC
0
SECTION
2
BLOCKS
0
BLOCK
5
20
100
AcDbEntity
100
AcDbBlockBegin
2
*MODEL_SPACE
0
ENDBLK
5
21
100
AcDbEntity
100
AcDbBlockEnd
0
BLOCK
5
1C
100
AcDbEntity
100
AcDbBlockBegin
2
*PAPER_SPACE
0
ENDBLK
5
1D
100
AcDbEntity
100
AcDbBlockEnd
0
ENDSEC
0
SECTION
2
ENTITIES
0
LWPOLYLINE
5
100
100
AcDbEntity
8
0
100
AcDbPolyline
90
48
70
1
43
0.0
10
-138.32535143430843
20
-307.34999745931486
42
-0.4142135623730534
10
-140.3253514343084
20
-305.34999745931515
10
-140.32535143430923
20
-299.86565449817334
42
0.4142135623730534
10
-142.32535143430923
20
-297.86565449817363
10
-147.90035143435401
20
-297.86565449817368
42
-0.41421356237309503
10
-149.90035143435404
20
-295.86565449817363
10
-149.90035143435404
20
-52.051505084464708
42
-0.41421356237309503
10
-147.90035143435401
20
-50.051505084464701
10
-110.65411127164701
20
-50.051505084464615
42
0.41421356237309503
10
-105.65411127164701
20
-45.051505084464608
10
-105.654111271647
20
-9.6499974593149105
42
-0.41421356237309914
10
-103.65411127164698
20
-7.6499974593148998
10
73.845848565647003
20
-7.6499974593148989
42
-0.41421356237309631
10
75.845848565647003
20
-9.6499974593149105
10
75.845848565646904
20
-45.1000000000002
42
0.41421356237309503
10
80.845848565646904
20
-50.1000000000002
10
117.89964856564602
20
-50.100000000000207
42
-0.41421356237309764
10
119.899648565646
20
-52.100000000000222
10
119.89964856564558
20
-295.86565449816993
42
-0.41421356237309503
10
117.89964856564563
20
-297.86565449816987
10
112.32464856560125
20
-297.86565449816993
42
0.4142135623730534
10
110.32464856560127
20
-299.86565449816965
10
110.32464856560046
20
-305.44999745931528
42
-0.4142135623730534
10
108.32464856560043
20
-307.44999745931506
10
68.9996485656456
20
-307.449997459315
42
-0.41421356237309503
10
66.9996485656456
20
-305.449997459315
10
66.999648565645671
20
-297.449997459315
42
0.41421356237309503
10
64.999648565645714
20
-295.449997459315
10
56.9996485656457
20
-295.44999745931494
42
0.41421356237309503
10
54.9996485656456
20
-297.449997459315
10
54.9996485656456
20
-305.449997459315
42
-0.41421356237309503
10
52.999648565645607
20
-307.449997459315
10
22.9576447340289
20
-307.449997459315
42
-0.41421356237309503
10
20.957644734028904
20
-305.449997459315
10
20.957644734028943
20
-300.78582733934502
42
0.198912367379633
10
19.493178639961801
20
-297.25029343341299
10
12.122110828095984
20
-289.87922562154688
42
-0.19891236737966919
10
10.657644734028599
20
-286.343691715614
10
10.657644734028651
20
-262.54299850554798
42
0.41421356237309442
10
5.6576447340286506
20
-257.54299850554798
10
-35.842355265970703
20
-257.54299850554798
42
0.41421356237310075
10
-40.842355265970802
20
-262.54299850554798
10
-40.842355265970653
20
-285.79919726595699
42
-0.1989123673794507
10
-42.306821360035102
20
-289.33473117188697
10
-49.677889171900425
20
-296.705798983764
42
0.19891236737934762
10
-51.142355265964909
20
-300.24133288969199
10
-51.142355265967616
20
-305.349997459316
42
-0.41421356237294937
10
-53.142355265967609
20
-307.34999745931498
0
ENDSEC
0
SECTION
2
OBJECTS
0
DICTIONARY
5
C
100
AcDbDictionary
3
ACAD_GROUP
350
D
3
ACAD_MLINESTYLE
350
17
0
DICTIONARY
5
D
100
AcDbDictionary
0
DICTIONARY
5
1A
330
C
100
AcDbDictionary
0
DICTIONARY
5
17
100
AcDbDictionary
0
ENDSEC
0
EOF
