0
SECTION
2
HEADER
9
$INSUNITS
70
4
9
$ACADVER
1
AC1014
9
$HANDSEED
5
FFFF
0
ENDSEC
0
SECTION
2
TABLES
0
TABLE
2
VPORT
5
8
100
AcDbSymbolTable
0
ENDTAB
0
TABLE
2
LTYPE
5
5
100
AcDbSymbolTable
0
LTYPE
5
14
100
AcDbSymbolTableRecord
100
AcDbLinetypeTableRecord
2
BYBLOCK
70
0
0
LTYPE
5
15
100
AcDbSymbolTableRecord
100
AcDbLinetypeTableRecord
2
BYLAYER
70
0
0
ENDTAB
0
TABLE
2
LAYER
5
2
100
AcDbSymbolTable
70
2
0
LAYER
5
50
100
AcDbSymbolTableRecord
100
AcDbLayerTableRecord
2
0
70
0
6
CONTINUOUS
0
ENDTAB
0
TABLE
2
STYLE
5
3
100
AcDbSymbolTable
70
1
0
STYLE
5
11
100
AcDbSymbolTableRecord
100
AcDbTextStyleTableRecord
2
STANDARD
70
0
0
ENDTAB
0
TABLE
2
VIEW
5
6
100
AcDbSymbolTable
70
0
0
ENDTAB
0
TABLE
2
UCS
5
7
100
AcDbSymbolTable
70
0
0
ENDTAB
0
TABLE
2
APPID
5
9
100
AcDbSymbolTable
70
2
0
APPID
5
12
100
AcDbSymbolTableRecord
100
AcDbRegAppTableRecord
2
ACAD
70
0
0
ENDTAB
0
TABLE
2
DIMSTYLE
5
A
100
AcDbSymbolTable
70
1
0
ENDTAB
0
TABLE
2
BLOCK_RECORD
5
1
100
AcDbSymbolTable
70
1
0
BLOCK_RECORD
5
1F
100
AcDbSymbolTableRecord
100
AcDbBlockTableRecord
2
*MODEL_SPACE
0
BLOCK_RECORD
5
1B
100
AcDbSymbolTableRecord
100
AcDbBlockTableRecord
2
*PAPER_SPACE
0
ENDTAB
0
ENDSEC
0
SECTION
2
BLOCKS
0
BLOCK
5
20
100
AcDbEntity
100
AcDbBlockBegin
2
*MODEL_SPACE
0
ENDBLK
5
21
100
AcDbEntity
100
AcDbBlockEnd
0
BLOCK
5
1C
100
AcDbEntity
100
AcDbBlockBegin
2
*PAPER_SPACE
0
ENDBLK
5
1D
100
AcDbEntity
100
AcDbBlockEnd
0
ENDSEC
0
SECTION
2
ENTITIES
0
LWPOLYLINE
5
100
100
AcDbEntity
8
0
100
AcDbPolyline
90
46
70
1
43
0.0
10
-117.89964856564563
20
-303.449997459315
42
-0.41421356237309503
10
-119.89964856564562
20
-301.44999745931506
10
-119.899648565646
20
-52.100000000000207
42
-0.41421356237309503
10
-117.89964856564602
20
-50.1000000000002
10
-80.845848565646904
20
-50.1000000000002
42
0.41421356237309503
10
-75.845848565646904
20
-45.1000000000002
10
-75.845848565647003
20
-9.6499974593149105
42
-0.41421356237309914
10
-73.845848565646989
20
-7.6499974593149105
10
103.65411127164698
20
-7.6499974593148901
42
-0.41421356237309631
10
105.65411127164701
20
-9.6499974593149105
10
105.654111271647
20
-45.051505084464608
42
0.41421356237309503
10
110.65411127164701
20
-50.051505084464608
10
147.90035143435401
20
-50.051505084464708
42
-0.41421356237309764
10
149.90035143435401
20
-52.051505084464722
10
149.90035143435398
20
-301.34999745931503
42
-0.41421356237309503
10
147.90035143435401
20
-303.34999745931498
10
143.90035143435401
20
-303.34999745931503
42
0.41421356237309503
10
141.90035143435401
20
-305.34999745931498
42
-0.41421356237307422
10
139.90035143435401
20
-307.34999745931486
10
53.142355265967609
20
-307.34999745931498
42
-0.41421356237294937
10
51.142355265967609
20
-305.349997459316
10
51.142355265964895
20
-300.24133288969199
42
0.19891236737934731
10
49.677889171900404
20
-296.705798983764
10
42.306821360035087
20
-289.33473117188703
42
-0.19891236737945139
10
40.84235526597061
20
-285.79919726595699
10
40.842355265970802
20
-262.54299850554798
42
0.41421356237310075
10
35.842355265970703
20
-257.54299850554798
10
-5.6576447340286498
20
-257.54299850554798
42
0.41421356237309453
10
-10.657644734028599
20
-262.54299850554798
10
-10.657644734028356
20
-286.343691715614
42
-0.19891236737966828
10
-12.122110828095799
20
-289.87922562154699
10
-19.493178639962075
20
-297.25029343341276
42
0.19891236737963208
10
-20.957644734028904
20
-300.78582733934502
10
-20.957644734028907
20
-305.449997459315
42
-0.41421356237309503
10
-22.9576447340289
20
-307.449997459315
10
-52.999648565645607
20
-307.449997459315
42
-0.41421356237309503
10
-54.9996485656456
20
-305.449997459315
10
-54.999648565645636
20
-297.449997459315
42
0.41421356237309503
10
-56.9996485656457
20
-295.449997459315
10
-64.999648565645714
20
-295.44999745931506
42
0.41421356237309503
10
-66.9996485656456
20
-297.449997459315
10
-66.999648565645614
20
-305.449997459315
42
-0.41421356237309503
10
-68.9996485656456
20
-307.449997459315
10
-109.899648565646
20
-307.449997459315
42
-0.41421356237309503
10
-111.899648565646
20
-305.449997459315
42
0.41421356237309503
10
-113.899648565646
20
-303.449997459315
0
ENDSEC
0
SECTION
2
OBJECTS
0
DICTIONARY
5
C
100
AcDbDictionary
3
ACAD_GROUP
350
D
3
ACAD_MLINESTYLE
350
17
0
DICTIONARY
5
D
100
AcDbDictionary
0
DICTIONARY
5
1A
330
C
100
AcDbDictionary
0
DICTIONARY
5
17
100
AcDbDictionary
0
ENDSEC
0
EOF
